<?xml version="1.0" encoding="utf-8" ?>
<svg xmlns="http://www.w3.org/2000/svg" xmlns:xlink="http://www.w3.org/1999/xlink" width="1024" height="1024">
	<path fill="#FED855" d="M498.853 68.2203L498.946 68.2121C518.409 67.443 537.889 69.0264 557.234 71.0331C576.473 73.0288 596.193 75.7887 615.047 80.1664C659.821 90.5624 703.102 108.733 742.341 132.53L766.309 147.689C776.758 155.041 786.49 163.189 796.341 171.305C803.537 177.233 811.046 182.984 817.885 189.314C825.963 196.791 833.456 204.991 840.895 213.1C863.77 238.034 884.424 265.412 900.859 295.057C906.896 305.947 911.988 317.324 917.166 328.637C927.071 350.275 935.759 372.556 941.88 395.585C950.517 428.083 954.963 461.602 956.276 495.178C956.727 506.698 956.242 518.205 955.787 529.714C955.131 546.287 954.179 562.941 951.748 579.363C948.706 599.916 943.576 620.123 937.604 640C925.464 680.406 908.293 719.678 885.365 755.17C875.943 769.756 865.459 783.469 854.393 796.823C849.425 802.818 844.637 809.142 839.323 814.825C831.088 823.632 822.066 831.63 813.17 839.75C798.251 853.368 782.442 865.773 765.916 877.381C759.444 881.928 753.045 886.639 746.285 890.753C736.618 896.637 726.325 901.793 716.276 906.986C700.017 915.388 683.266 923.102 666.017 929.26C641.934 937.858 616.754 943.662 591.549 947.818C570.345 951.315 548.621 953.819 527.125 954.499C464.446 956.241 400.531 945.735 342.25 922.461C292.505 902.596 246.731 873.094 207.374 836.863C176.188 808.152 148.817 774.098 127.641 737.365C118.953 722.294 111.594 706.781 104.589 690.88C97.4825 674.75 90.8081 658.32 85.75 641.419C81.8746 628.471 79.1029 615.36 76.5201 602.106C71.8659 578.222 68.5879 553.586 67.6322 529.25C63.4347 422.353 99.8802 316.415 166.347 232.951C173.814 223.574 182.085 214.854 190.198 206.04C201.504 193.76 213.96 183.185 226.674 172.419C245.93 156.112 266.176 140.97 288.007 128.25C300.813 120.789 314.282 114.552 327.713 108.325C349.284 98.3247 372.169 89.4679 395.157 83.3034C429.03 74.2204 463.858 69.6581 498.853 68.2203Z"/>
	<path fill="#BCA561" d="M783.286 759.556C783.079 761.153 782.758 762.376 781.936 763.78C779.764 767.491 776.657 770.135 774.081 773.5C772.321 775.799 771.227 779.183 768.803 780.851C767.089 782.031 766.008 782.25 763.997 782.301C765.746 780.679 767.968 778.782 769.216 776.75C770.338 774.923 770.559 773.548 772.206 771.971L783.286 759.556Z"/>
	<path d="M517.675 338.045C519.622 337.916 522.096 337.915 523.84 338.905C525.221 339.689 526.51 341.304 527.434 342.561C530.483 346.71 532.726 351.583 535.508 355.933C540.551 363.819 546.569 371.753 550.899 380.008C551.759 381.647 552.248 383.479 552.728 385.258C547.994 394.469 542.167 402.87 536.818 411.694C535.449 413.951 534.076 417.848 532.25 419.573L531.775 418.25L531.25 418.626C529.214 423.48 526.749 428.011 522.57 431.335C520.76 431.792 517.698 432.46 515.908 431.852C513.913 431.174 512.567 429.292 511.359 427.656C508.172 423.343 505.665 418.28 502.728 413.754L492.925 398.756C490.918 395.779 488.218 392.542 486.804 389.254C485.808 386.938 485.77 384.959 486.744 382.619C488.319 378.838 491.83 375.533 494.045 372.032L505.625 353.013C507.982 348.92 509.991 344.299 513.058 340.685C514.233 339.3 516.029 338.687 517.675 338.045Z"/>
	<path fill="#FED855" d="M519.522 364.243C525.257 369.657 528.962 378.151 532.752 384.968L518.84 407.115L509.974 393.286C508.803 391.493 506.616 388.901 506.179 386.797C505.532 383.684 507.584 381.441 509.115 379.021L519.522 364.243Z"/>
	<path d="M717.014 222.622C719.267 222.705 721.606 222.789 723.75 223.554C728.342 225.194 732.499 229.741 735.919 233.091C744.006 241.012 751.783 248.464 756.609 258.877C759.352 264.796 759.95 270.538 757.449 276.75C756.347 279.488 754.428 282.04 751.61 283.078C750.383 283.53 749.654 283.78 748.661 284.629L748.516 287.25C748.716 288.521 749.655 289.296 750.75 289.847C753.347 291.156 756.436 291.649 759.125 292.95C770.051 298.237 780.693 305.727 789.434 314.174C807.319 331.459 817.222 359.236 817.508 383.903C817.79 408.327 808.961 433.497 791.72 451.078C773.875 469.275 748.719 482.287 722.854 482.513C701.55 482.183 682.798 477.508 665 465.59C649.305 455.08 636.882 439.046 629.364 421.835C627.082 416.609 624.915 411.062 623.85 405.442C622.607 398.88 622.473 392.262 622.42 385.608C622.354 377.288 622.667 369.356 624.397 361.178C629.665 336.278 645.793 313.805 667.272 300.346C670.062 298.598 672.894 296.829 675.81 295.299C679.016 293.618 687.526 290.845 689.491 288C689.459 287.653 689.422 285.932 689.283 285.75C688.818 285.143 687.203 284.262 686.528 283.759C683.049 281.172 680.145 278.304 678.915 274.003C677.119 267.726 679.411 261.36 682.575 255.984C687.01 248.453 693.273 242.043 699.376 235.864C704.285 230.894 709.981 224.389 717.014 222.622Z"/>
	<path fill="#FED855" d="M719.114 242.354C721.169 243.25 723.642 246.844 725.173 248.572L741.061 266.502L719.479 266.71L696.857 266.964C702.378 257.329 711.545 251.55 718.484 243.128L719.114 242.354Z"/>
	<path fill="#FED855" d="M707.643 285.025L730.058 285.025L730.534 302.776C742.533 305.643 752.556 308.47 762.761 315.745C770.861 321.52 777.706 328.203 783.44 336.367C784.988 338.571 786.16 340.994 787.619 343.25C788.897 345.228 790.627 346.846 791.75 348.949C793.805 352.799 794.83 357.441 796.25 361.56C797.385 364.851 798.655 367.94 799.211 371.398C802.339 390.826 797.219 414.617 785.564 430.522C782.805 434.288 779.482 437.527 776.144 440.773C763.588 452.982 749.434 460.82 732.044 463.388C720.856 465.112 708.684 464.829 697.729 461.733C676.848 455.833 659.676 440.884 649.234 422.067C640.527 406.376 638.506 385.981 641.498 368.391C642.271 363.845 643.81 359.992 645.19 355.628C645.865 353.492 646.089 351.236 646.775 349.1C647.848 345.756 650.516 342.612 652.589 339.788C661.568 327.554 671.702 316.718 685.69 310.243C692.921 306.896 700.778 305.787 707.89 302.009L707.643 285.025Z"/>
	<path d="M713.5 335.007L726.438 335.247L727.073 342.998C731.589 343.971 735.535 344.716 739.401 347.403C745.714 351.79 748.624 358.193 749.978 365.503L738.872 365.327C737.965 365.295 736.569 365.443 735.757 364.996C732.969 363.462 730.015 362.68 726.979 361.731L726.963 375.872C732.083 376.574 737.057 377.737 741.293 380.878C744.149 382.996 746.479 385.855 749.069 388.277C750.199 389.334 750.89 389.923 751.286 391.475C751.515 392.372 751.588 392.762 752.045 393.617C754.246 397.737 754.268 402.54 753.164 407C752.769 408.598 751.185 413.717 749.657 414.278L748.75 414.501C748.412 415.735 748.075 417.004 747.312 418.055C742.678 424.428 734.103 425.828 726.922 427.156L726.862 436.683L718.462 436.578C716.755 436.552 714.701 436.956 713.47 435.75L713.493 427.264C707.47 426.82 701.857 424.808 696.846 421.43C689.771 416.661 686.69 408.505 685.064 400.487C688.952 400.606 704.77 399.92 707.018 402.26C708.176 403.466 708.525 405.567 709.661 406.659C710.557 407.521 713.191 408.124 714.393 408.548L714.611 391.327C708.971 390.64 704.069 389.58 699.281 386.303C693.884 382.609 690.305 378.225 689.128 371.636C688.064 365.673 689.408 358.15 693.103 353.261C698.125 346.614 705.443 344.32 713.37 343.377L713.5 335.007Z"/>
	<path fill="#FED855" d="M728.242 396.165C729.062 396.307 730.022 396.373 730.75 396.816C732.317 397.771 733.522 399.529 733.882 401.315C734.284 403.306 732.778 404.681 731.691 406.291L728.25 406.697C727.335 405.844 727.204 404.873 727.056 403.675C726.729 401.033 726.578 398.364 728.242 396.165Z"/>
	<path fill="#FED855" d="M711.301 361.485C712.769 361.354 713.435 361.095 714.75 361.814C715.094 364.302 715.677 369.644 714.25 371.635L712.356 370.839C710.251 369.923 708.241 369.23 706.659 367.5L706.863 366.274C707.496 363.754 709.233 362.775 711.301 361.485Z"/>
	<path d="M306.298 242.705L306.599 242.653C322.41 241.33 340.908 246.147 354.984 253.211C358.053 254.751 360.803 256.753 363.75 258.493C368.04 261.027 371.822 262.993 375.669 266.231C388.036 276.641 398.112 289.26 404.717 304.069C407.058 309.317 408.669 314.657 410.357 320.131C410.828 321.658 411.648 322.768 412.25 324.194C413.701 327.634 414.088 332.345 414.375 336.033C414.9 342.786 414.586 349.806 414.357 356.568C414.243 359.912 414.434 363.777 413.682 367.044C412.987 370.068 411.424 372.951 410.667 376.017C409.68 380.009 409.116 383.984 407.7 387.877C404.154 397.628 396.767 408.231 390.076 416.102C377.079 431.392 359.478 443.01 340.123 448.482C331.884 450.812 323.631 451.812 315.125 452.506C289.097 452.798 265.026 446.284 244.791 429.291C222.444 410.525 208.162 384.969 205.648 355.699C203.278 328.115 211.239 301.174 229.327 280.018C236.206 271.973 244.93 264.217 254.021 258.75C256.832 257.06 259.963 255.772 262.877 254.25C269.004 251.051 274.528 248.259 281.234 246.449C289.361 244.255 297.934 243.408 306.298 242.705Z"/>
	<path fill="#FED855" d="M319.046 261.672C337.99 263.888 354.384 271.137 368.35 284.221C379.084 294.278 385.939 305.186 391.134 318.884C393.443 324.972 395.258 330.45 395.495 336.994L372.677 336.522C368.858 336.448 364.594 336.739 360.842 336.084C357.668 329.75 354.695 323.592 350.617 317.77C342.77 306.567 332.583 300.828 319.325 298.5L319.046 261.672Z"/>
	<path fill="#FED855" d="M298.406 262.199L300.25 262.075C301.511 263.886 301.007 268.677 301.053 271.053L301.507 298.395C294.792 299.836 288.898 301.425 282.846 304.726C270.092 311.681 264.146 323.003 260.263 336.502L227.375 336.992C226.283 337.001 225.56 336.673 224.565 336.25C223.609 322.167 232.293 305.48 240.596 294.675C250.842 281.343 264.964 270.821 281.086 265.674C286.67 263.891 292.614 262.964 298.406 262.199Z"/>
	<path fill="#FED855" d="M254.81 353.726L259.644 354.036C260.541 359.828 261.837 364.873 264.488 370.126C269.8 380.652 278.895 389.206 289.624 394.067C293.426 395.79 297.63 396.95 301.594 398.265L301.478 434.589C293.344 433.782 286.071 431.131 278.468 428.291C269.425 424.167 260.926 419.556 253.393 412.986C240.644 401.868 230.367 387.255 226.329 370.672C225 365.216 224.594 359.594 224.207 354.008L254.81 353.726Z"/>
	<path fill="#FED855" d="M390.644 353.783C392.179 353.674 394.653 353.146 395.98 354C396.367 358.15 395.538 362.849 394.685 366.923C392.178 378.908 387.409 390.126 380.062 399.998C366.748 417.889 345.095 430.454 323.13 433.821C321.737 433.905 320.67 434.256 319.461 433.5C319.23 432.509 319.068 431.63 319.056 430.607L318.999 403.366L318.998 398.393C318.998 398.165 318.998 397.112 318.998 397.112C319.557 396.671 325.082 396.085 326.103 395.778C333.914 393.431 341.227 388.389 346.821 382.548C354.417 374.616 359.306 365.427 359.032 354.311L390.644 353.783Z"/>
	<path fill="#FED855" d="M303.977 315.593C312.085 315.118 320.571 315.877 327.788 319.909C334.606 323.719 339.712 332.097 341.783 339.438C344.159 347.861 342.316 356.924 338.081 364.422C332.933 373.537 325.056 377.405 315.333 380.092C311.205 380.984 305.835 381.006 301.756 379.899C293.563 377.677 285.421 371.348 281.313 363.947L277.829 358.488C275.343 354.376 275.995 344.93 277.199 340.442L277.458 339.5C278.148 336.939 279.059 334.592 280.315 332.258C285.223 323.14 294.491 318.446 303.977 315.593Z"/>
	<path d="M309.216 472.487C310.237 472.439 311.312 472.377 312.32 472.57C314.171 472.925 315.869 474.206 317.165 475.515C321.79 480.186 325.426 486.923 329.274 492.318C334.516 499.669 340.394 506.812 345.193 514.452L345.714 515.291C347.034 517.392 346.842 519.595 346.863 522L346.543 521.052C343.901 523.061 341.581 528.966 339.51 531.893L328.356 546.169L316.285 564.009C317.944 568.517 323.391 573.911 326.358 577.805L335.953 591.5C339.254 596.042 342.984 599.918 345.941 604.761L357.939 587.406C361.744 581.557 373.831 559.895 378.885 557.326C380.142 556.687 382.642 557.135 383.906 557.684C387.123 559.08 391.496 567.083 393.545 570L417.81 604.701C421.067 609.315 424.814 613.719 427.802 618.502C428.775 620.06 429.487 621.678 430.083 623.409C430.564 624.803 430.722 625.09 430.149 626.522C427.066 634.218 421.48 641.769 417.304 649.015L407.922 665.5C406.155 668.437 403.953 671.104 402.25 674.077C399.906 678.169 398.094 682.556 395.653 686.601L382 709.692C379 714.803 375.788 719.675 373.191 725.018L353.999 724.746L354.082 783.717L316.625 783.509L268.487 783.778L268.507 725.021L249.837 725.011C244.73 714.671 238.559 705.025 232.645 695.142L221.733 676.558C220.437 674.526 218.764 672.776 217.488 670.717L201.266 643.251C198.22 638.038 194.33 633.128 191.638 627.754C190.665 625.813 189.956 623.7 190.01 621.5C190.052 619.778 190.902 618.154 191.799 616.729C195.648 610.61 200.534 605.064 204.673 599.128L222.515 573.123C225.492 568.695 228.155 562.863 232.134 559.31C233.26 558.305 234.417 557.343 236.009 557.544C237.48 557.728 238.985 558.408 240.086 559.4C245.77 564.524 249.68 572.478 254.057 578.722L273.717 605.377L304.361 562.27C298.93 552.453 291.489 543.558 285.066 534.347C282.439 530.578 279.413 526.73 277.673 522.459C275.405 516.895 278.435 514.288 280.525 509.465C282.382 505.179 286.992 500.907 289.727 496.995C294.286 490.471 298.237 482.604 303.486 476.673C305.185 474.755 306.969 473.639 309.216 472.487Z"/>
	<path fill="#FED855" d="M236.089 584.64L257.361 613.5L239.431 613.265C232.94 613.283 225.921 613.815 219.5 613.01C218.443 612.294 217.954 611.964 217.503 610.75C218.772 607.186 223.426 603.276 225.77 600.04L236.089 584.64Z"/>
	<path fill="#FED855" d="M309.448 585.985C317.766 594.306 323.746 603.601 330.758 612.955L310.766 613.226L289.242 612.945L309.448 585.985Z"/>
	<path fill="#FED855" d="M381.62 584.802L393.465 601.063C394.79 602.869 396.496 604.063 397.793 605.744C399.407 607.838 400.435 610.796 401.504 613.215L382.154 613.003L361.231 613.149L381.62 584.802Z"/>
	<path fill="#FED855" d="M311.077 498.925L311.868 498.898C312.441 499.183 312.816 499.434 313.163 499.986C317.352 506.629 322.427 512.477 327.085 518.79L311.632 539.593L311.176 539.75C308.662 537.828 307.103 534.097 305.245 531.47L295.66 518.397C298.087 514.243 301.777 510.948 304.443 506.94C305.517 505.324 307.071 500.89 308.453 499.903C309.044 499.481 310.358 499.193 311.077 498.925Z"/>
	<path fill="#FED855" d="M286.565 725.029L336.203 725.027L336.214 765L286.475 764.979L286.565 725.029Z"/>
	<path fill="#FED855" d="M354.031 630.713L406.566 630.515C403.93 636.643 400.11 642.096 396.785 647.851L378.117 680.281L362.562 707.008L353.906 706.992L354.031 630.713Z"/>
	<path fill="#FED855" d="M214.825 629.858C221.342 631.069 228.435 630.525 235.052 630.53L268.988 630.507L268.514 706.938L260.947 706.992L214.825 629.858Z"/>
	<path fill="#FED855" d="M287.261 630.727L335.997 630.754L335.998 706.726L286.834 706.678L286.535 645.145L286.539 635.379C286.54 634.42 286.28 632.357 286.544 631.5C286.647 631.164 287.022 630.984 287.261 630.727Z"/>
	<path d="M455.989 487.425L412.681 487.009C408.849 496.22 404.223 503.221 394.604 507.117C388.29 509.674 379.047 509.856 372.731 507.175C364.902 503.85 359.288 497.606 356.171 489.766C353.186 482.256 353.92 473.675 357.361 466.457C360.941 458.949 367.935 453.655 375.722 451.043C383.074 448.577 391.698 449.872 398.484 453.314C404.786 456.512 410.086 462.74 412.323 469.487L492.599 469.677L492.783 469.041C495.095 461.318 499.634 455.491 506.831 451.724C514.122 447.909 522.302 447.249 530.142 449.774C538.428 452.443 543.863 457.885 547.692 465.572L549.335 469.055L573.121 469.121C575.976 469.127 579.462 468.627 582.22 469.178C583.393 469.412 584.528 470.278 585.352 471.109C588.363 474.145 589.79 478.014 593.318 480.569C595.893 482.435 596.051 484.627 597.75 486.968C599.236 489.015 601.321 490.619 602.853 492.672L638.09 537.539L642.939 536.204C650.883 534.1 660.007 535.228 666.977 539.425C672.005 542.453 675.169 546.938 677.822 552.075C678.103 552.62 679.146 555.231 679.504 555.491C679.853 555.746 716.798 555.314 720.851 555.295L721.377 554.586C727.414 546.528 734.918 540.166 745.173 538.864C752.73 537.905 763.426 541.42 769.313 546.093C775.219 550.782 779.129 559.074 779.762 566.469C780.439 574.376 777.212 582.844 772.046 588.796C769.577 591.642 766.541 594.246 763.629 596.635L776.952 615L790.647 635.049L806.615 657.161C808.579 659.79 811.018 661.507 812.526 664.5C814.46 668.335 817.037 671.144 819.559 674.552C821.639 677.362 823.366 680.417 825.49 683.196C827.2 685.433 829.758 687.706 830.895 690.252C831.777 692.23 831.76 694.938 831.145 696.989C829.724 701.731 824.579 705.858 821.469 709.646L811.28 722.584C809.956 724.317 807.154 729.61 805.552 730.412L805 729.409C804.182 730.063 804.148 730.118 803.732 730.998C800.967 736.851 797.278 742.722 792.156 746.775C788.988 749.282 784.589 755.769 783.286 759.556L772.206 771.971C770.559 773.548 770.338 774.923 769.216 776.75C767.968 778.782 765.746 780.679 763.997 782.301C759.685 784.848 754.835 786.531 749.75 786.307C744.242 786.064 739.505 783.002 735.844 779.103C729.438 772.279 723.766 764.756 717.851 757.514L695.866 731.319L679.835 712.315C676.452 708.4 672.533 704.502 669.602 700.245C667.898 697.77 667.306 695.779 667.481 692.75C667.673 689.42 669.985 685.213 672.5 683.088C675.217 680.792 677.041 677.548 679.07 674.645L689.631 659.567L734.005 596.436C729.003 593.08 723.967 589.11 721.089 583.681C719.463 580.613 718.552 577.159 717.591 573.838C715.288 572.509 706.934 574.066 704.052 574.203C701.515 574.324 698.951 574.16 696.418 573.999L692.791 573.876L683.837 573.953C682.874 573.961 681.142 573.736 680.25 573.984C679.417 574.215 678.62 575.078 678.031 575.68L677.234 576.515L677.168 576.725C673.709 584.242 669.023 588.954 661.346 592.022C654.095 594.921 645.658 595.1 638.525 591.904C630.728 588.411 624.424 582.074 621.447 573.982C617.805 564.079 620.063 557.429 624.379 548.245C615.51 539.329 608.093 528.955 600.414 519.024L576.09 487.553C568.688 486.326 561.19 486.499 553.716 486.492C552.936 486.491 549.594 486.258 549.234 486.494C548.821 486.765 548.809 487.387 548.596 487.832C547.52 490.079 546.468 492.92 544.893 494.852C540.98 499.655 535.184 502.693 529.916 505.764L529.992 727.218L602.855 727.72L603 746.827C603.012 750.945 603.271 755.257 602.292 759.287C601.876 761.001 600.898 762.559 600.187 764.165C597.32 770.65 595.317 774.794 589.106 778.646C584.747 781.348 580.159 782.785 575.084 783.444C568.88 784.25 562.563 783.992 556.32 783.996L528.289 783.999L495.876 784.018L472.916 784.25C468.952 784.115 464.704 783.818 460.859 782.843L460 782.61C453.822 780.974 448.227 777.432 443.891 772.75C441.37 770.027 438.738 765.791 437.59 762.25C436.462 758.773 436.365 754.762 436.197 751.133C435.823 743.097 436.163 735.046 436.474 727.014L511.949 727.256L512.024 505.82C509.221 504.613 506.128 503.49 503.537 501.891C499.009 499.095 494.732 494.094 493.601 488.862L455.989 487.425Z"/>
	<path fill="#1A1818" d="M679.867 571.418C683.989 570.75 689.229 570.561 693.25 571.788L693.701 572.363C694.265 573.034 694.463 573.165 695.226 573.489L695.882 573.775L696.418 573.999L692.791 573.876C690.344 573.094 687.779 573.787 685.434 573L686.122 571.992L686 571.67L679.867 571.418Z"/>
	<path fill="#312F2E" d="M679.867 571.418L686 571.67L686.122 571.992L685.434 573C687.779 573.787 690.344 573.094 692.791 573.876L683.837 573.953C682.874 573.961 681.142 573.736 680.25 573.984C679.417 574.215 678.62 575.078 678.031 575.68L677.234 576.515C677.276 574.609 677.418 573.416 678.399 571.75L679.867 571.418Z"/>
	<path fill="#BCA561" d="M455.989 487.425C460.774 486.988 465.547 487.257 470.339 487.085L484.958 486.459C487.361 486.373 490.085 485.975 492.418 486.618C492.956 487.412 493.268 487.945 493.601 488.862L455.989 487.425Z"/>
	<path fill="#FED855" d="M518.921 466.017C521.863 465.908 524.427 466.217 527.314 466.751C529.545 468.647 531.974 471.58 533.275 474.205C533.337 476.512 533.045 478.651 532.127 480.793C530.313 485.02 527.285 487.343 523.149 489.121C520.738 489.361 518.255 489.486 515.946 488.604C513.054 487.5 511.108 485.014 509.94 482.23C508.889 479.722 507.865 475.846 509.122 473.25C511.128 469.107 514.812 467.4 518.921 466.017Z"/>
	<path fill="#FED855" d="M381.058 467.492C383.049 467.48 385.365 467.311 387.264 467.967C392.576 469.8 394.775 474.513 396.878 479.255C395.58 482.475 394.079 484.868 392.238 487.766C391.803 488.451 391.234 489.754 390.63 490.25C390.053 490.724 388.677 491.111 387.951 491.431C385.425 491.671 381.818 492.155 379.57 490.758C374.331 487.502 372.294 482.73 371.124 476.993C373.796 472.967 376.942 470.008 381.058 467.492Z"/>
	<path fill="#FED855" d="M646.595 553.626C649.518 553.206 655.064 552.891 657.66 554.539C661.629 557.059 662.801 562.939 663.702 567.187C661.072 571.394 657.722 574.104 653.405 576.412C650.641 576.866 648.116 576.681 645.342 576.469C643.449 574.529 639.454 571.662 638.353 569.339C637.019 566.527 637.458 562.95 638.652 560.179C640.215 556.553 643.148 555.024 646.595 553.626Z"/>
	<path fill="#FED855" d="M746.32 557.028C747.656 556.967 749.004 556.921 750.324 557.177C752.323 557.566 756.075 558.594 757.731 559.709C758.336 560.117 759.362 561.901 759.75 562.551C761.326 565.191 762.193 568.677 761.324 571.696C759.961 576.436 755.401 579.797 751.195 581.883C748.41 582.246 745.302 582.438 742.653 581.342C739.675 580.11 737.203 576.997 736.055 574.057C734.796 570.829 735.522 566.742 737.025 563.736C738.896 559.995 742.563 558.266 746.32 557.028Z"/>
	<path fill="#FED855" d="M454.724 744.722L585.098 745.015L585.054 750.807C584.925 756.632 583.225 758.626 579.163 762.513L574.897 765.969L507.45 766.533C494.429 766.715 480.654 768.084 467.75 766.449C464.614 766.051 460.746 764.803 458.415 762.586C453.961 758.35 453.806 750.991 453.64 745.25L454.724 744.722Z"/>
	<path fill="#FED855" d="M747.285 606.538C754.656 613.664 760.49 623.905 766.534 632.257L784.977 657.85C790.687 665.71 796.203 673.083 801.115 681.504C794.918 682.517 788.485 682.258 782.226 682.271L752.125 681.987L699 682.703L698.204 682C698.077 681.505 697.41 679.628 697.502 679.25C697.848 677.838 700.413 675.009 701.353 673.651L713.496 656C715.504 653.212 717.918 650.718 719.851 647.882C722.038 644.674 723.755 641.176 726.008 638C733.451 627.507 741.035 617.842 747.285 606.538Z"/>
	<path fill="#FED855" d="M693.036 699.286L776.661 698.845L795.393 698.759C796.884 698.755 800.659 698.401 802 698.956C802.564 699.19 803 699.657 803.5 700.008L804.546 699.645L805.25 700.004C805.147 700.586 805.204 701.221 804.942 701.75C804.205 703.234 801.869 704.834 800.769 706.259L775.456 739.168L751.33 769.196L711.249 722.102C706.098 716.047 699.587 710.052 695.074 703.593C694.181 702.314 693.603 700.726 693.036 699.286Z"/>
</svg>
