<?xml version="1.0" encoding="utf-8" ?>
<svg xmlns="http://www.w3.org/2000/svg" xmlns:xlink="http://www.w3.org/1999/xlink" width="1024" height="1024">
	<path fill="#FED855" d="M365.119 739.951C370.105 740.916 375.414 740.508 380.475 740.443L411.431 740.622C418.468 740.79 425.464 741.649 432.507 741.023C437.58 741.027 443.402 740.52 448.393 741.169C451.052 741.671 453.967 741.18 456.654 740.974C462.83 741.469 467.833 741.306 473.933 740.238C477.937 741.385 482.56 740.959 486.699 740.975L504.597 740.88C509.923 741.942 515.955 742.087 521.306 741.199L551.967 740.318L569.152 740.517C569.604 740.977 569.606 741.024 570.25 741.417C572.021 742.499 574.485 742.906 576.5 742.402C578.057 742.012 578.527 741.403 579.266 740.064C583.798 742.455 589.638 741.429 594.599 740.997L620.787 741.049C628.464 741.134 636.465 741.762 644.092 740.895C648.708 740.671 655.54 739.575 659.886 740.97C662.596 742.15 667.171 741.654 670.156 741.655L696.024 741.384C692.05 745.831 684.125 753.321 684.556 759.619C684.713 761.903 685.727 764.047 687.473 765.552C689.474 767.277 695.456 766.4 698.071 766.067L708.167 754.046C710.273 749.729 714.756 742.614 719.136 740.564L719.75 741.976L722.637 742.281C730.073 741.038 737.27 741.175 744.757 740.939L775.75 740.394C782.12 740.446 788.991 741.48 795.241 740.356C795.311 744.519 794.344 755.164 797.144 758.367C799.14 760.649 802.715 760.662 805.5 760.497C807.34 760.388 809.187 759.519 810.371 758.072C812.414 755.575 811.881 750.182 811.669 747.104C832.539 749.363 853.671 748.529 874.648 748.501L891.073 748.459C895.165 748.444 898.898 748.099 902.875 749.265L903.55 750.028C899.914 754.005 897.168 758.763 893.992 763.11L882.75 777.958C878.362 784 874.238 790.202 869.515 796C846.801 823.882 820.207 850.381 791.75 872.456C783.917 878.533 775.236 883.869 767.026 889.443C754.47 897.97 741.972 906.148 728.467 913.121C704.703 925.391 679.645 935.116 654.176 943.207C628.898 951.237 602.996 957.737 576.688 961.309C569.291 962.313 561.803 962.57 554.366 963.199L522.79 965.255C501.945 965.691 480.895 964.448 460.159 962.434C448.281 961.281 436.202 959.981 424.46 957.868C403.702 954.133 382.478 948.496 362.391 942.021C351.477 938.504 340.97 933.933 330.464 929.372L308.111 919.628C295.145 913.228 282.355 905.269 270.195 897.484L240.44 877.913C229.651 870.043 219.349 861.225 209.25 852.494C205.609 849.347 201.592 846.616 198.093 843.329C177.632 824.107 159.118 802.544 142.601 779.888C135.214 769.757 126.55 759.441 120.84 748.32C131.63 749.741 141.991 748.599 152.794 748.502L212.432 748.013L212.808 760.952C215.128 762.272 217.617 763.182 220.098 764.147C222.487 763.782 225.105 763.537 226.84 761.651C230.036 758.178 228.688 745.743 228.673 740.979L304.487 740.33L305.167 741.036C312.726 749.008 318.139 758.961 326.291 766.457C330.103 765.943 334.076 765.93 336.618 762.609C338.331 760.37 338.672 758.506 338.379 755.75C336.746 752.784 334.191 750.358 331.954 747.829L325.625 740.051C335.018 740.814 344.805 740.536 354.25 740.557C357.244 740.564 362.399 741.083 365.119 739.951Z"/>
	<path fill="#AF9C5B" d="M708.167 754.046C710.273 749.729 714.756 742.614 719.136 740.564L719.75 741.976L722.637 742.281C722.108 742.397 720.289 742.601 719.944 742.871C719.047 743.575 717.968 745.522 717.204 746.475C715.02 749.197 711.525 752.98 708.167 754.046Z"/>
	<path fill="#FED855" d="M113.834 736.381L94.7992 696.494C88.3727 682.064 82.7249 666.771 77.8434 651.756C66.6565 617.346 59.9597 579.855 57.8556 543.747L57.3982 505.478C57.6134 483.862 58.6628 462.661 62.0081 441.279C67.0116 409.298 75.9172 377.542 86.9055 347.123C95.5488 323.196 107.383 300.917 120.063 278.941C125.375 269.733 130.589 260.418 136.656 251.677C142.388 243.417 149.091 235.511 155.458 227.72C158.719 223.731 163.449 219.949 165.254 215.116C166.581 211.561 169.512 209.298 172.197 206.765L181.617 197.65C193.137 186.205 204.772 174.876 217.188 164.391C237.12 147.558 259.404 132.454 282 119.445C293.021 113.1 304.215 106.826 315.83 101.626C333.817 93.5748 352.512 85.388 371.275 79.2658C384.999 74.7877 398.921 71.5942 413 68.4943L427.004 65.2454L439.433 63.4755C449.861 61.6959 460.078 59.6975 470.639 58.7421C480.852 57.8181 491.322 58.0403 501.584 57.9261C525.529 57.6595 549.292 57.8452 573.078 61.0709C584.066 62.561 595.151 65.2358 606 67.5284C627.673 72.1083 649.604 77.4402 670.312 85.402L704.472 100.204C711.212 103.302 718.148 106.153 724.683 109.667C741.578 118.752 757.725 129.182 773.5 140.051C778.731 143.656 784.249 146.99 789.302 150.83C793.389 153.936 797.065 157.698 801.066 160.947C821.789 177.779 841.967 196.723 859.155 217.231C868.077 227.878 876.144 239.58 884.215 250.886C899.497 272.296 914.105 295.011 924.777 319.121C932.415 336.377 939.821 354.521 945.493 372.5C952.406 394.413 957.281 417.135 960.9 439.815C962.675 450.94 964.478 462.146 965.276 473.389C966.22 486.692 965.744 500.391 965.756 513.734C965.767 526.945 966.37 540.641 965.401 553.8C964.911 560.453 963.417 567.145 962.615 573.787C961.167 585.792 960.019 597.742 957.726 609.637C952.834 635.02 944.033 660.107 934.695 684.168C929.329 697.997 923.218 711.244 916.447 724.437C914.666 727.909 912.633 732.895 910.099 735.783L909.799 737.722C910.58 739.528 911.148 740.763 910.971 742.75C909.381 745.601 906.623 748.728 903.55 750.028L902.875 749.265C898.898 748.099 895.165 748.444 891.073 748.459L874.648 748.501C853.671 748.529 832.539 749.363 811.669 747.104C811.881 750.182 812.414 755.575 810.371 758.072C809.187 759.519 807.34 760.388 805.5 760.497C802.715 760.662 799.14 760.649 797.144 758.367C794.344 755.164 795.311 744.519 795.241 740.356C788.991 741.48 782.12 740.446 775.75 740.394L744.757 740.939C737.27 741.175 730.073 741.038 722.637 742.281L719.75 741.976L719.136 740.564C714.756 742.614 710.273 749.729 708.167 754.046L698.071 766.067C695.456 766.4 689.474 767.277 687.473 765.552C685.727 764.047 684.713 761.903 684.556 759.619C684.125 753.321 692.05 745.831 696.024 741.384L670.156 741.655C667.171 741.654 662.596 742.15 659.886 740.97C655.54 739.575 648.708 740.671 644.092 740.895C636.465 741.762 628.464 741.134 620.787 741.049L594.599 740.997C589.638 741.429 583.798 742.455 579.266 740.064C578.527 741.403 578.057 742.012 576.5 742.402C574.485 742.906 572.021 742.499 570.25 741.417C569.606 741.024 569.604 740.977 569.152 740.517L551.967 740.318L521.306 741.199C515.955 742.087 509.923 741.942 504.597 740.88L486.699 740.975C482.56 740.959 477.937 741.385 473.933 740.238C467.833 741.306 462.83 741.469 456.654 740.974C453.967 741.18 451.052 741.671 448.393 741.169C443.402 740.52 437.58 741.027 432.507 741.023C425.464 741.649 418.468 740.79 411.431 740.622L380.475 740.443C375.414 740.508 370.105 740.916 365.119 739.951C362.399 741.083 357.244 740.564 354.25 740.557C344.805 740.536 335.018 740.814 325.625 740.051L331.954 747.829C334.191 750.358 336.746 752.784 338.379 755.75C338.672 758.506 338.331 760.37 336.618 762.609C334.076 765.93 330.103 765.943 326.291 766.457C318.139 758.961 312.726 749.008 305.167 741.036L304.487 740.33L228.673 740.979C228.688 745.743 230.036 758.178 226.84 761.651C225.105 763.537 222.487 763.782 220.098 764.147C217.617 763.182 215.128 762.272 212.808 760.952L212.432 748.013L152.794 748.502C141.991 748.599 131.63 749.741 120.84 748.32C117.373 744.479 115.179 741.461 113.834 736.381ZM414.604 364.061C410.689 371.65 406.991 379.581 402.545 386.862C391.084 405.631 374.121 422.316 355.455 433.886C353.593 435.04 346.167 438.814 345.597 440.825C345.257 442.026 345.558 444.44 345.545 445.747L345.504 460.177C345.501 462.656 345.788 465.577 345.254 467.996C344.739 470.333 342.651 471.48 340.518 472.115L339.968 472.247L340.042 538.214C338.958 584.459 323.615 627.934 294.837 664.378C290.024 670.473 284.1 675.958 278.951 681.829L325.625 740.051C335.018 740.814 344.805 740.536 354.25 740.557C357.244 740.564 362.399 741.083 365.119 739.951C370.105 740.916 375.414 740.508 380.475 740.443L411.431 740.622C418.468 740.79 425.464 741.649 432.507 741.023C437.58 741.027 443.402 740.52 448.393 741.169C451.052 741.671 453.967 741.18 456.654 740.974C462.83 741.469 467.833 741.306 473.933 740.238C477.937 741.385 482.56 740.959 486.699 740.975L504.597 740.88C509.923 741.942 515.955 742.087 521.306 741.199L551.967 740.318L569.152 740.517C569.604 740.977 569.606 741.024 570.25 741.417C572.021 742.499 574.485 742.906 576.5 742.402C578.057 742.012 578.527 741.403 579.266 740.064C583.798 742.455 589.638 741.429 594.599 740.997L620.787 741.049C628.464 741.134 636.465 741.762 644.092 740.895C648.708 740.671 655.54 739.575 659.886 740.97C662.596 742.15 667.171 741.654 670.156 741.655L696.024 741.384L744.766 681.921L733.087 667.525C727.053 659.633 722.256 651.018 717.589 642.28C704.261 617.325 695.629 591.078 690.002 563.406C686.745 547.386 684.412 531.138 684.104 514.774C683.847 501.16 685.832 487.53 687.589 474.067L677.352 473.196C676.337 464.93 677.045 456.025 677.236 447.716C677.281 445.779 677.923 441.402 677.323 439.666C677.268 439.508 677.082 439.434 676.959 439.322C674.225 436.831 670.861 435.058 667.756 433.074L656.253 425.122C643.507 415.653 632.141 404.183 623.375 390.923C617.607 382.198 613.149 372.953 608.693 363.526L414.604 364.061ZM744.766 681.921L696.024 741.384C692.05 745.831 684.125 753.321 684.556 759.619C684.713 761.903 685.727 764.047 687.473 765.552C689.474 767.277 695.456 766.4 698.071 766.067L708.167 754.046C710.273 749.729 714.756 742.614 719.136 740.564L719.75 741.976L722.637 742.281C730.073 741.038 737.27 741.175 744.757 740.939L775.75 740.394C782.12 740.446 788.991 741.48 795.241 740.356C795.311 744.519 794.344 755.164 797.144 758.367C799.14 760.649 802.715 760.662 805.5 760.497C807.34 760.388 809.187 759.519 810.371 758.072C812.414 755.575 811.881 750.182 811.669 747.104C832.539 749.363 853.671 748.529 874.648 748.501L891.073 748.459C895.165 748.444 898.898 748.099 902.875 749.265L903.55 750.028C906.623 748.728 909.381 745.601 910.971 742.75C911.148 740.763 910.58 739.528 909.799 737.722L910.099 735.783C908.082 732.159 904.559 728.78 901.809 725.66L887.25 709.09L847.219 662.294L826.882 638.3C822.469 633.101 814.996 626.484 812.985 620.015C811.713 615.926 812.306 610.334 812.338 606.036L812.213 587.672L812.008 434.493L832.759 435.055C836.576 435.091 840.853 435.589 844.5 434.414C846.727 431.501 845.062 405.277 844.93 400.517L877.014 401.016L876.616 318.501L845.206 318.477L845.585 285.001L754.045 285.273L755.007 318.711L726.014 318.711L725.728 401.022L755.998 400.507L754.971 435.504L795.463 434.524L795.157 566.709L795.092 599.497L795.112 612.685C795.103 615.497 795.319 618.901 794.313 621.57C793.693 623.218 792.103 624.698 790.958 626.029L783.132 635.196L744.766 681.921ZM113.834 736.381C115.179 741.461 117.373 744.479 120.84 748.32C131.63 749.741 141.991 748.599 152.794 748.502L212.432 748.013L212.808 760.952C215.128 762.272 217.617 763.182 220.098 764.147C222.487 763.782 225.105 763.537 226.84 761.651C230.036 758.178 228.688 745.743 228.673 740.979L304.487 740.33L305.167 741.036C312.726 749.008 318.139 758.961 326.291 766.457C330.103 765.943 334.076 765.93 336.618 762.609C338.331 760.37 338.672 758.506 338.379 755.75C336.746 752.784 334.191 750.358 331.954 747.829L325.625 740.051L278.951 681.829L247.889 645.055L237.949 633.457C235.066 630.218 231.382 626.851 229.681 622.818C229.03 621.275 228.622 619.668 228.487 618C227.998 611.964 228.459 605.668 228.48 599.608L228.47 562.846L228.345 432.505L266.19 432.498L265.812 399.022L298.469 398.997L298.524 346.964C298.539 337.782 299.281 328.115 298.119 318.998L266.099 318.993C266.306 307.913 267.505 295.695 266.175 284.729L177.838 285.253L178.033 319.503L147.041 319.498L147.048 399.504L170.652 399.675C172.702 399.689 176.107 399.241 177.97 400.018L178.005 432.504L212.537 432.018L212.493 580.589L212.494 613.217C212.502 615.64 213.188 620.258 212.602 622.495C212.362 623.412 175.606 665.099 171.499 669.752L136.453 709.415C128.962 717.822 119.236 726.538 113.834 736.381Z"/>
	<path d="M113.834 736.381C119.236 726.538 128.962 717.822 136.453 709.415L171.499 669.752C175.606 665.099 212.362 623.412 212.602 622.495C213.188 620.258 212.502 615.64 212.494 613.217L212.493 580.589L212.537 432.018L178.005 432.504L177.97 400.018C176.107 399.241 172.702 399.689 170.652 399.675L147.048 399.504L147.041 319.498L178.033 319.503L177.838 285.253L266.175 284.729C267.505 295.695 266.306 307.913 266.099 318.993L298.119 318.998C299.281 328.115 298.539 337.782 298.524 346.964L298.469 398.997L265.812 399.022L266.19 432.498L228.345 432.505L228.47 562.846L228.48 599.608C228.459 605.668 227.998 611.964 228.487 618C228.622 619.668 229.03 621.275 229.681 622.818C231.382 626.851 235.066 630.218 237.949 633.457L247.889 645.055L278.951 681.829L325.625 740.051L331.954 747.829C334.191 750.358 336.746 752.784 338.379 755.75C338.672 758.506 338.331 760.37 336.618 762.609C334.076 765.93 330.103 765.943 326.291 766.457C318.139 758.961 312.726 749.008 305.167 741.036L304.487 740.33L228.673 740.979C228.688 745.743 230.036 758.178 226.84 761.651C225.105 763.537 222.487 763.782 220.098 764.147C217.617 763.182 215.128 762.272 212.808 760.952L212.432 748.013L152.794 748.502C141.991 748.599 131.63 749.741 120.84 748.32C117.373 744.479 115.179 741.461 113.834 736.381ZM266.339 696.905L228.66 732.026L228.673 740.979L304.487 740.33C301.836 736.494 298.44 733.225 295.202 729.89L266.339 696.905Z"/>
	<path fill="#91908F" d="M197.413 373.728C202.411 375.977 207.71 381.975 212.054 385.467C212.346 386.336 212.569 387.07 212.628 387.988C210.446 387.471 208.226 386.52 206.25 385.463C201.655 383.003 198.959 378.565 197.413 373.728Z"/>
	<path fill="#BCB9B8" d="M268.098 694.435C272.722 699.177 276.828 704.299 281.13 709.324C286.219 715.269 293.671 721.979 295.202 729.89L266.339 696.905L268.098 694.435Z"/>
	<path fill="#91908F" d="M231.936 334.407C238.278 335.288 243.224 338.156 247.093 343.264C251.689 349.331 254.176 356.459 253.105 364.118C252.685 367.117 251.2 370.039 249.488 372.512L249.084 355C248.396 346.451 237.954 339.605 231.936 334.407Z"/>
	<path fill="#FED855" d="M228.66 732.026C228.264 729.344 228.535 726.324 228.519 723.588L228.472 707.415L227.493 646.08L268.098 694.435L266.339 696.905L228.66 732.026Z"/>
	<path fill="#FEFEFE" d="M197.413 373.728C195.161 367.499 194.219 361.399 195.692 354.852C197.243 347.958 202.35 340.944 208.326 337.186C215.328 332.784 224.082 332.569 231.936 334.407C237.954 339.605 248.396 346.451 249.084 355L249.488 372.512C244.789 380.041 239.034 386.796 229.926 388.838C224.567 390.04 218.01 388.743 212.628 387.988C212.569 387.07 212.346 386.336 212.054 385.467C207.71 381.975 202.411 375.977 197.413 373.728Z"/>
	<path fill="#FED855" d="M212.862 647.855L212.697 668.242L212.436 708.803L212.278 724.966C212.252 727.34 212.589 730.464 211.921 732.72L138.823 733.468L138.25 732.344C138.33 731.98 138.317 731.581 138.49 731.25C139.136 730.006 141.322 728.27 142.336 727.2L153.301 715.363L193.354 669.373C199.808 662.065 205.888 654.697 212.862 647.855Z"/>
	<path d="M744.766 681.921L783.132 635.196L790.958 626.029C792.103 624.698 793.693 623.218 794.313 621.57C795.319 618.901 795.103 615.497 795.112 612.685L795.092 599.497L795.157 566.709L795.463 434.524L754.971 435.504L755.998 400.507L725.728 401.022L726.014 318.711L755.007 318.711L754.045 285.273L845.585 285.001L845.206 318.477L876.616 318.501L877.014 401.016L844.93 400.517C845.062 405.277 846.727 431.501 844.5 434.414C840.853 435.589 836.576 435.091 832.759 435.055L812.008 434.493L812.213 587.672L812.338 606.036C812.306 610.334 811.713 615.926 812.985 620.015C814.996 626.484 822.469 633.101 826.882 638.3L847.219 662.294L887.25 709.09L901.809 725.66C904.559 728.78 908.082 732.159 910.099 735.783L909.799 737.722C910.58 739.528 911.148 740.763 910.971 742.75C909.381 745.601 906.623 748.728 903.55 750.028L902.875 749.265C898.898 748.099 895.165 748.444 891.073 748.459L874.648 748.501C853.671 748.529 832.539 749.363 811.669 747.104C811.881 750.182 812.414 755.575 810.371 758.072C809.187 759.519 807.34 760.388 805.5 760.497C802.715 760.662 799.14 760.649 797.144 758.367C794.344 755.164 795.311 744.519 795.241 740.356C788.991 741.48 782.12 740.446 775.75 740.394L744.757 740.939C737.27 741.175 730.073 741.038 722.637 742.281L719.75 741.976L719.136 740.564C714.756 742.614 710.273 749.729 708.167 754.046L698.071 766.067C695.456 766.4 689.474 767.277 687.473 765.552C685.727 764.047 684.713 761.903 684.556 759.619C684.125 753.321 692.05 745.831 696.024 741.384L744.766 681.921ZM754.711 696.048L719.136 740.564L719.75 741.976L722.637 742.281C730.073 741.038 737.27 741.175 744.757 740.939L775.75 740.394C782.12 740.446 788.991 741.48 795.241 740.356L794.954 733.825L754.711 696.048Z"/>
	<path fill="#BCB9B8" d="M909.799 737.722C910.58 739.528 911.148 740.763 910.971 742.75C909.381 745.601 906.623 748.728 903.55 750.028L902.875 749.265L902.434 748.395C901.586 748.065 901.49 747.964 900.807 747.25C904.416 744.544 907.958 741.991 909.799 737.722Z"/>
	<path fill="#FED855" d="M754.711 696.048L777.454 668.658C782.185 662.878 786.529 656.636 791.877 651.396C792.847 650.445 794.193 648.815 795.492 648.401L794.954 733.825L754.711 696.048Z"/>
	<path fill="#FEFEFE" d="M797.952 334.177C805.287 333.558 812.264 336.083 817.969 340.605C823.368 344.884 826.927 351.382 827.501 358.293C828.143 366.03 826.019 373.373 821.054 379.408C816.587 384.839 809.879 387.853 803.02 388.603C795.534 388.577 788.834 387.553 782.642 382.949C777.215 378.915 773.518 372.542 772.563 365.869C771.49 358.376 773.059 350.488 777.695 344.407C782.698 337.844 789.976 335.158 797.952 334.177Z"/>
	<path fill="#FED855" d="M810.714 644.967L884.966 732.398C876.197 731.289 867.567 732.011 858.77 731.969L811.995 731.484L811.983 674.269C811.981 664.49 812.241 654.656 810.714 644.967Z"/>
	<path d="M339.968 472.247C336.688 472.319 334.689 472.512 332.021 470.25C331.165 468.578 330.965 467.116 330.936 465.25L330.972 353.813L330.932 284.989L330.931 265.011C330.931 262.021 330.447 258.154 331.505 255.341C332.127 253.688 333.819 252.162 335.433 251.496C337.635 250.587 340.657 250.886 342.75 251.976C344.513 252.894 345.737 253.735 346.229 255.738C348.007 262.985 346.376 272.434 346.467 279.978L677.42 279.697C676.977 272.868 676.261 265.847 676.888 259.024C677.063 257.125 677.305 254.871 678.639 253.388C679.964 251.916 681.772 251.097 683.75 251.015C686.801 250.889 690.514 251.949 692.641 254.212C693.491 255.117 693.779 256.035 693.937 257.25C694.751 263.509 694.008 270.941 694.018 277.326L694.093 322.272L694.325 473.995L687.589 474.067L677.352 473.196C676.337 464.93 677.045 456.025 677.236 447.716C677.281 445.779 677.923 441.402 677.323 439.666C677.268 439.508 677.082 439.434 676.959 439.322C674.225 436.831 670.861 435.058 667.756 433.074L656.253 425.122C643.507 415.653 632.141 404.183 623.375 390.923C617.607 382.198 613.149 372.953 608.693 363.526L414.604 364.061C410.689 371.65 406.991 379.581 402.545 386.862C391.084 405.631 374.121 422.316 355.455 433.886C353.593 435.04 346.167 438.814 345.597 440.825C345.257 442.026 345.558 444.44 345.545 445.747L345.504 460.177C345.501 462.656 345.788 465.577 345.254 467.996C344.739 470.333 342.651 471.48 340.518 472.115L339.968 472.247Z"/>
	<path fill="#FED855" d="M353.889 295.249L407.504 295.018L407.706 331.5L400.25 331.495L346.552 331.479L346.506 295.33L353.889 295.249Z"/>
	<path fill="#FED855" d="M629.848 295.247L677.006 295.013L676.524 332.495L662.75 331.989L614.5 331.99L614.406 295.33L629.848 295.247Z"/>
	<path fill="#FED855" d="M619.034 347.509L677.466 347.344L678.058 418.864C676.482 419.222 675.081 419.476 673.533 418.855C669.316 417.162 665.462 412.435 662.176 409.365C649.77 397.775 638.458 385.427 630.106 370.513C625.979 363.143 622.664 355.143 619.034 347.509Z"/>
	<path fill="#FED855" d="M389.896 347.267L403.415 347.02C401.587 353.323 398.938 358.991 396.056 364.859C386.159 385.013 372.573 401.786 354.69 415.39L346.297 420.368C346.366 413.406 345.9 348.921 346.83 347.333L389.896 347.267Z"/>
	<path fill="#FED855" d="M414.604 364.061L419.989 347.496L603.099 347.281C604.203 352.843 606.274 358.41 608.693 363.526L414.604 364.061Z"/>
	<path fill="#FED855" d="M424.51 295.342L597.997 295.343L597.793 331.997L423.439 331.99L424.51 295.342Z"/>
	<path fill="#706E70" d="M441.454 693.391C444.074 693.783 446.43 694.298 448.147 696.496C450.955 700.091 450.13 705.539 449.363 709.75L449.277 710.125C448.319 707.103 447.786 703.681 446.52 700.805C445.314 698.064 443.314 695.709 441.454 693.391Z"/>
	<path d="M579.266 740.064C577.749 735.607 578.566 729.257 578.573 724.558L578.621 709.101C578.629 705.822 578.286 700.978 579.807 697.966C580.905 695.792 583.275 694.264 585.601 693.687C589 692.844 593.688 693.514 597.263 693.471L597.334 692.737C597.601 690.198 597.858 687.52 600 685.808C602.959 683.443 609.7 684.39 613.362 684.546L613.578 641.09C609.175 641.074 601.348 642.016 597.996 638.75C596.229 637.029 595.512 634.418 595.626 632C595.726 629.906 596.443 627.509 598.165 626.185C601.793 623.394 608.273 624.08 612.577 624.344C612.729 624.354 612.938 624.491 613.033 624.373C613.215 624.147 613.193 623.813 613.235 623.526L613.357 591.937C609.868 592.039 601.413 593.063 598.836 590.771C597.023 589.159 595.922 586.964 595.862 584.529C595.798 581.902 596.799 579.814 598.709 578.028C599.565 577.228 600.429 576.837 601.5 576.412L602.091 576.169C605.474 574.911 610.168 575.665 613.778 575.554L613.875 508.422C606.177 505.881 598.218 500.478 594.514 493C591.526 486.969 591.38 478.804 593.643 472.5C596 465.932 601.115 459.984 607.5 457.078C614.411 453.934 622.983 453.729 630.111 456.323C636.885 458.788 643.073 464.345 645.916 471C646.816 473.107 647.305 475.251 647.666 477.5L647.783 478.195C648.775 484.472 647.074 491.26 643.385 496.407C641.419 499.149 629.836 508.29 629.557 509.416C629.248 510.656 629.532 512.91 629.524 514.232L629.477 525.892L629.542 576.035C634.274 576.101 639.187 575.899 643.88 576.524C645.195 580.234 646.603 585.456 644.756 589.257C644.055 590.7 643.503 591.173 642 591.619C638.509 592.657 633.297 592.068 629.611 592.086L629.642 624.54C633.043 624.458 640.503 623.365 643.063 625.631C645.012 627.356 645.588 629.261 645.606 631.775C645.622 634.11 645.718 637.858 643.942 639.596C642.084 641.415 632.325 640.546 629.523 640.533L629.535 684.551C632.801 684.564 639.448 683.935 641.958 686.092C643.896 687.757 643.696 691.094 643.877 693.432C648.836 693.428 653.987 692.832 657.875 696.569C660.106 698.712 660.021 701.477 659.973 704.371L659.886 740.97C655.54 739.575 648.708 740.671 644.092 740.895C636.465 741.762 628.464 741.134 620.787 741.049L594.599 740.997C589.638 741.429 583.798 742.455 579.266 740.064ZM594.599 740.997L620.787 741.049C628.464 741.134 636.465 741.762 644.092 740.895L643.542 712.044L595.147 711.941L594.599 740.997Z"/>
	<path d="M456.654 740.974C460.035 730.584 464.962 721.247 469.954 711.565L482.446 687.233C479.875 684.012 477.151 680.964 477.74 676.524C477.981 674.71 478.74 672.738 480.179 671.53C482.574 669.518 486.18 669.982 489.093 669.981L504.795 670.011L504.902 561.264L504.896 528.343C504.894 522.001 505.274 515.329 504.518 509.038C496.184 512.318 488.534 517.622 480.931 522.322C475.741 525.53 469.35 530.828 463.111 531.076C460.517 529.859 457.751 528.524 456.697 525.619C456.134 524.07 456.188 521.22 457.022 519.75C458.099 517.852 460.008 516.442 461.812 515.277C467.75 511.441 474.169 508.192 480.344 504.751L516.552 484.75L542.996 470.168C547.302 467.817 552.166 464.351 556.941 463.151C559.405 462.532 561.967 462.721 564.123 464.085C566.249 465.43 567.898 467.726 568.33 470.219C568.667 472.167 568.277 474.347 567.05 475.915C563.692 480.202 556.929 482.933 552.238 485.503L528.406 498.293C526.915 499.027 521.113 500.958 520.436 502.093C520.127 502.611 520.463 506.711 520.467 507.502L520.563 527.701L520.57 600.348L521.157 669.939C527.368 669.631 539.891 667.965 544.75 672.309C546.328 673.719 546.548 675.096 546.557 677.165C546.571 680.286 545.804 681.874 543.983 684.317C543.818 684.539 542.773 685.792 542.75 685.921C542.709 686.146 545.475 690.805 545.864 691.519L552.753 705.666L562.965 726L569.152 740.517L551.967 740.318L521.306 741.199C515.955 742.087 509.923 741.942 504.597 740.88L486.699 740.975C482.56 740.959 477.937 741.385 473.933 740.238C467.833 741.306 462.83 741.469 456.654 740.974ZM473.933 740.238C477.937 741.385 482.56 740.959 486.699 740.975L504.597 740.88L504.978 700.465C504.989 696.844 505.924 688.78 504.208 685.78C503.47 685.639 502.88 685.6 502.139 685.772C500.83 686.078 499.885 686.397 499.049 687.5C496.574 690.766 495.378 695.363 493.68 699.1L483.884 719.897C480.88 726.489 478.288 733.654 474.291 739.706L473.933 740.238ZM521.306 741.199L551.967 740.318L540.537 717C535.902 707.107 531.862 695.235 525.25 686.559C523.604 686.486 522.778 686.662 521.25 687.282C519.52 692.915 520.989 700.542 521.062 706.469L521.306 741.199Z"/>
	<path d="M365.119 739.951C363.753 733.214 364.408 725.43 364.403 718.539C364.398 713.39 363.95 707.766 364.586 702.67C364.909 700.086 365.76 697.003 367.96 695.381C371.532 692.749 377.952 694.028 382.021 694.669C382.389 691.941 382.711 687.894 385.105 686.124C387.975 684.002 393.571 684.87 397.018 685L397.068 639.964C393.161 640.003 388.287 640.588 384.504 639.718L384 639.591C383.077 639.377 382.3 639.202 381.509 638.641C379.681 637.344 378.291 634.734 378.132 632.5C377.99 630.496 379.291 627.954 380.686 626.579C384.505 622.813 392.046 623.941 396.991 623.988L397.302 591.94C393.065 591.988 384.138 593.21 380.75 590.478C379.155 589.191 378.07 586.74 377.954 584.723C377.841 582.739 378.457 580.801 379.872 579.378C383.641 575.588 392.383 576.529 397.387 576.528L397.535 556.103L397.589 519.063L397.548 508.467C397.542 507.147 397.826 504.864 397.522 503.661C397.056 501.813 392.319 497.366 390.939 495.506C386.572 489.619 385.507 482.363 386.689 475.219C387.923 467.766 392.423 462.001 398.382 457.612C403.136 454.111 409.715 451.724 415.684 452.717C425.138 454.291 430.563 460.047 435.886 467.557C439.537 472.709 440.784 478.057 439.696 484.29L439.564 485C438.963 488.443 437.893 491.536 436.026 494.5C430.576 503.151 422.908 505.572 413.456 507.701L413.235 570.732L413.39 575.465C413.401 575.716 413.44 576.548 413.442 576.549C413.746 576.726 415.732 576.538 416.295 576.537C420.336 576.528 427.534 575.779 430.517 578.89C432.205 580.651 433.148 583.046 433.008 585.5C432.904 587.334 431.952 588.972 430.57 590.153C426.778 593.397 418.176 592.008 413.481 591.679L413.49 624.001C418.073 624.897 424.603 622.399 428.75 625.053C431.933 627.09 432.169 630.625 432.714 634.011C431.638 635.74 430.285 637.145 428.906 638.632C427.061 640.62 416.699 639.892 413.456 640.012L413.413 685.02C417.187 684.968 423.635 684.026 426.698 686.25C427.59 688.524 427.424 691.109 427.494 693.526L441.454 693.391C443.314 695.709 445.314 698.064 446.52 700.805C447.786 703.681 448.319 707.103 449.277 710.125L448.393 741.169C443.402 740.52 437.58 741.027 432.507 741.023C425.464 741.649 418.468 740.79 411.431 740.622L380.475 740.443C375.414 740.508 370.105 740.916 365.119 739.951ZM380.475 740.443L411.431 740.622C418.468 740.79 425.464 741.649 432.507 741.023L433.009 711.506L380.503 711.618L380.475 740.443Z"/>
</svg>
