<?xml version="1.0" encoding="utf-8" ?>
<svg xmlns="http://www.w3.org/2000/svg" xmlns:xlink="http://www.w3.org/1999/xlink" width="1024" height="1024">
	<path fill="#FED855" d="M851.607 811.524L851.505 811.662C841.014 823.365 829.1 833.919 817.441 844.429L797.184 862.303C760.531 891.991 719.704 915.459 675.632 932.152C666.666 935.549 657.686 939.162 648.476 941.855C636.203 945.444 623.7 947.813 611.185 950.366C601.39 952.364 591.539 954.645 581.627 955.978C544.802 960.932 506.874 961.744 469.864 958.693C463.022 958.129 456.049 957.881 449.25 956.95C432.812 954.698 416.498 950.907 400.463 946.73C356.253 935.213 313.035 917.836 274 893.923C260.767 885.816 247.809 876.458 235.453 867.043C218.084 853.807 201.064 839.124 186.082 823.216C177.187 813.771 169.081 803.592 160.931 793.505C144.978 773.76 130.563 753.461 118.208 731.247C109.416 715.441 102.061 699.141 95.1492 682.438C90.2325 670.556 85.4412 658.707 81.5081 646.454C74.509 624.649 69.5741 601.678 66.5567 578.972C62.6663 549.698 60.4516 519.997 61.6589 490.453C65.3205 400.847 97.6768 310.539 152.415 239.426C181.013 202.272 215.374 169.911 253.872 143.25L277.45 127.509C285.988 122.405 295.187 118.142 304.09 113.695L327.258 102.282L342 96.546L356.2 90.7414C378.729 82.6185 401.874 76.7299 425.36 72.1464C434.699 70.3239 444.089 67.7071 453.521 66.5115C459.388 65.7678 465.364 65.9232 471.255 65.4132L486.357 63.8901C501.341 62.8922 516.932 62.8291 531.941 63.5473C540.227 63.9439 548.505 65.3001 556.75 66.2074L590.5 70.5065C621.607 75.9658 653.683 85.3023 683 97.0541L697.261 103.492C705.293 107.027 713.404 110.195 721.212 114.231C732.386 120.007 743.131 126.741 753.818 133.365C765.984 140.905 778.223 148.588 789.5 157.423L810.64 175.675C820.166 184.113 829.527 192.441 838.378 201.613L859.446 225.747C866.13 233.668 872.88 241.739 878.872 250.199C893.848 271.341 906.701 294.231 917.998 317.504C922.616 327.018 927.417 336.366 931.318 346.213L939.931 371.305C949.106 399.794 955.699 429.001 959.278 458.722C961.026 473.23 962.314 487.66 962.438 502.286C962.553 515.956 961.591 529.651 960.692 543.284C959.644 559.188 958.27 575.3 955.51 591L947.565 626C942.911 644.608 937.509 663.06 930.332 680.87C921.728 702.222 910.718 722.687 899.29 742.642C892.742 754.077 886.564 766.216 879.221 777.141C874.79 783.732 869.44 789.882 864.537 796.138C860.628 801.629 856.574 806.934 851.607 811.524Z"/>
	<path fill="#AE8E44" d="M776.835 686.964C779.758 684.97 784.421 684.508 787.86 685.115C791.361 685.733 795.887 686.819 799 688.532L799.637 690.024C791.919 688.355 784.704 687.459 776.835 686.964Z"/>
	<path fill="#FFE59A" d="M851.607 811.524L851.572 810.985C851.534 807.568 857.043 800.522 859.505 798.163C861.23 796.51 862.16 796.088 864.537 796.138C860.628 801.629 856.574 806.934 851.607 811.524Z"/>
	<path fill="#79673C" d="M739.169 784.376C740.318 784.091 741.399 783.934 742.584 784.111C746.086 784.634 749.431 785.991 752.918 786.588C757.392 787.353 761.973 786.916 766.278 788.525C757.03 790.682 747.307 789.231 739.169 784.376Z"/>
	<path fill="#79673C" d="M670.486 767.363C670.364 773.1 670.099 778.778 667.373 783.977C665.579 787.397 663.068 790.379 661.135 793.715C659.767 796.076 658.498 799.889 656.615 801.727C655.178 803.128 653.272 804.399 651.52 805.376C652.611 801.898 656.243 797.893 658.191 794.683C661.773 788.782 664.202 782.635 666.886 776.305C668.203 773.197 669.778 770.715 670.486 767.363Z"/>
	<defs>
		<linearGradient id="gradient_0" gradientUnits="userSpaceOnUse" x1="806.02545" y1="751.9386" x2="814.83374" y2="760.9671">
			<stop offset="0" stop-color="#564A20"/>
			<stop offset="1" stop-color="#7A683C"/>
		</linearGradient>
	</defs>
	<path fill="url(#gradient_0)" d="M788.774 781.265C792.333 778.385 796.473 776.237 799.975 773.25C808.285 766.161 817.056 755.463 821.447 745.456C823.776 740.151 825.104 733.346 828.307 728.602C828.938 727.668 829.39 726.769 829.871 725.747C828.771 743.876 817.625 761.456 804.169 773.273C801.042 776.019 795.14 781.367 791 781.891L788.774 781.265Z"/>
	<path d="M383.854 222.443C388.829 222.821 393.817 223.014 398.625 224.463C409.166 227.641 416.919 237.553 418.35 248.385C418.609 250.346 418.739 252.337 418.811 254.314C418.836 255.013 418.655 256.45 418.864 257.005C419.017 257.41 420.287 258.421 420.656 258.787C416.058 258.768 410.349 259.181 406.031 257.504C404.441 256.886 403.445 255.817 402.331 254.57C396.578 248.132 391.229 243.099 384.217 238.073C383.42 232.848 383.578 227.704 383.854 222.443Z"/>
	<path d="M384.171 193.18C397.435 193.557 410.768 194.004 422.5 200.972C435.35 208.603 444.346 221.838 447.848 236.169C448.681 239.577 451.133 250.846 449.375 253.751L439.353 253.405C438.061 253.308 430.628 253.143 429.971 252.613C429.958 252.603 429.638 246.6 429.507 245C429.005 238.841 425.859 232.071 421.792 227.406C415.603 220.308 406.012 214.581 396.75 212.78C392.686 211.99 388.307 211.931 384.171 211.65L384.171 193.18Z"/>
	<path d="M552.175 291.75C554.655 291.726 557.911 291.29 560.28 291.952L560.488 311.718L523.477 312.024L523.438 472.028C527.612 473.358 531.916 475.263 535.773 477.338C547.92 483.875 554.875 494.877 558.794 507.714L720.108 507.997L720.373 468.014L739.884 468C739.892 476.04 741.237 520.208 738.977 524.142C737.419 526.853 733.508 527.679 730.68 528.071C726.684 528.626 722.284 528.007 718.238 528.022L689.751 528.327L591.183 528.46L569.889 528.307C566.564 528.285 561.971 527.825 558.803 528.676C555.691 529.511 552.047 541.58 549.994 544.792C544.397 553.55 533.431 559.432 523.497 561.504L524.024 742.014L478.625 741.556C475.679 741.572 470.241 742.267 467.844 740.656C464.04 735.381 465.935 726.285 466.84 720.334C469.517 717.985 496.882 719.427 502.534 719.494L502.978 561.785C497.867 560.685 492.406 558.168 487.963 555.458C477.337 548.976 471.593 539.943 468.772 528.008L305.794 528.512L306.065 563.278L285.487 563.28L284.999 507.513C286.896 506.521 321.724 507.323 326.347 507.332L468.341 507.496C469.399 502.529 471.399 497.686 473.967 493.312C480.671 481.893 490.035 476.062 502.617 472.769L502.618 292.018L552.175 291.75Z"/>
	<path fill="#FED855" d="M509.553 492.721C514.927 492.527 519.539 491.942 524.5 494.579C530.05 497.529 536.061 504.425 537.656 510.456C539.29 516.634 538.319 524.119 535.101 529.659C531.409 536.015 524.376 540.197 517.418 542.059C510.802 541.666 505.178 541.247 499.388 537.646C493.851 534.203 489.025 527.224 487.868 520.778C486.869 515.209 489.334 507.857 492.476 503.285C496.604 497.281 502.533 493.953 509.553 492.721Z"/>
	<path d="M651.52 805.376L651.289 805.853C644.735 816.621 627.823 825.085 615.87 827.876C602.203 831.067 586.08 832.238 573.686 824.383C565.53 819.214 559.241 809.74 557.179 800.355C554.609 788.654 557.795 772.393 564.564 762.49C566.438 759.747 569.288 757.634 571.562 755.225C583.145 742.951 594.627 733.087 611.773 729.887C620.916 728.181 629.91 727.971 638.957 730.309C640.83 730.792 643.179 731.21 644.904 732.083C646.733 733.009 648.481 734.372 650.168 735.541C651.073 729.265 650.672 723.517 650.586 717.25L650.534 695.191L650.499 609.518L650.294 595.604C650.027 590.093 649.444 584.264 650.322 578.798L650.461 578C650.967 574.834 652.171 572.629 654.402 570.309C657.31 567.285 660.244 566.377 664.184 565.422C672.294 563.457 680.705 562.783 688.941 561.466L739.262 553.158L793.712 543.936C802.718 542.462 812.118 540.177 821.25 540.056C824.056 540.019 826.171 541.356 828.121 543.379C828.759 544.041 830.17 545.654 830.444 546.427C831.029 548.082 830.629 551.928 830.652 553.735L830.489 584.643L830.488 666.724L829.871 725.747C829.39 726.769 828.938 727.668 828.307 728.602C825.104 733.346 823.776 740.151 821.447 745.456C817.056 755.463 808.285 766.161 799.975 773.25C796.473 776.237 792.333 778.385 788.774 781.265C781.542 785.181 774.233 786.762 766.278 788.525C761.973 786.916 757.392 787.353 752.918 786.588C749.431 785.991 746.086 784.634 742.584 784.111C741.399 783.934 740.318 784.091 739.169 784.376C732.961 781.656 727.771 777.209 723.629 771.893C716.903 763.26 713.823 752.311 715.281 741.436L715.415 740.5C716.894 729.826 721.701 720.34 728.491 712.07C740.16 697.859 758.646 688.772 776.835 686.964C784.704 687.459 791.919 688.355 799.637 690.024C802.297 690.679 805.547 692.35 808.25 691.873L809.582 690.136L809.006 645.47L808.898 645.27C805.815 639.861 807.058 630.665 807.094 624.572L806.61 624.738C799.552 627.106 792.209 627.906 784.894 629.08L752.538 634.149L690.167 644.974L677.322 646.338C675.939 646.457 673.509 646.377 672.418 647.411C672.255 647.565 671.858 648.215 671.729 648.464C670.787 650.278 670.651 652.959 670.563 654.976C670.056 666.589 670.87 678.64 670.849 690.302L670.486 767.363C669.778 770.715 668.203 773.197 666.886 776.305C664.202 782.635 661.773 788.782 658.191 794.683C656.243 797.893 652.611 801.898 651.52 805.376Z"/>
	<path fill="#575348" d="M799.637 690.024C802.297 690.679 805.547 692.35 808.25 691.873L809.582 690.136C809.936 692.169 809.815 693.877 808.959 695.75L807.75 695.997C805.115 694.669 800.649 692.898 799.637 690.024Z"/>
	<path fill="#AE8E44" d="M807.094 624.572L808.836 624.75C810.931 627.714 809.842 640.923 809.149 644.734L809.006 645.47L808.898 645.27C805.815 639.861 807.058 630.665 807.094 624.572Z"/>
	<path fill="#AE8E44" d="M806.639 562.217L808.505 562.371C810.006 564.337 809.666 568.551 809.776 571.023C810.264 582.057 810.017 593.227 809.442 604.25C808.075 605.334 806.771 605.226 805.062 605.452C805.929 605.057 806.29 604.742 806.866 603.986C807.342 600.404 807.053 596.586 807.039 592.974L807.09 574.684C807.106 571.284 807.925 565.251 806.639 562.217Z"/>
	<path fill="#79673C" d="M783.794 707.422C789.357 706.734 795.943 709.418 800.37 712.774C804.472 715.884 806.871 719.235 807.445 724.394C808.325 732.294 804.89 741.128 799.904 747.205C798.35 749.1 796.274 751.246 793.869 751.942L803.462 734.769C804.91 731.716 807.356 725.796 806.046 722.5C803.023 714.897 790.713 710.228 783.794 707.422Z"/>
	<path fill="#FED855" d="M793.869 751.942C790.864 754.874 787.833 757.884 784.367 760.278C777.98 764.689 769.195 767.131 761.469 767.484C754.881 767.786 747.047 765.382 742.25 760.789C738.307 757.013 736.157 751.944 736.063 746.5C735.898 736.966 740.182 728.984 746.68 722.316C757.108 711.618 769.217 707.704 783.794 707.422C790.713 710.228 803.023 714.897 806.046 722.5C807.356 725.796 804.91 731.716 803.462 734.769L793.869 751.942Z"/>
	<path fill="#FED855" d="M621.253 748.665C625.215 748.229 629.692 748.068 633.548 749.161C638.46 750.554 642.454 753.649 644.899 758.15C648.379 764.557 647.998 771.553 645.779 778.296C642.189 789.204 631.555 800.221 621.373 805.297L620.62 805.662C614.75 808.546 609.263 809.722 602.787 810.302C597.14 811.062 590.009 810.011 585.063 807.139C580.809 804.668 577.995 801.355 576.855 796.52C575.047 788.847 578.016 778.816 581.97 772.179C582.697 770.96 582.999 770.475 584.455 770.167C585.766 769.889 590.716 763.392 592.083 762.066C595.785 758.477 602.009 753.058 607.107 751.733L621.253 748.665Z"/>
	<path fill="#FED855" d="M805.062 605.452C794.544 605.783 783.682 609.025 773.25 610.632L724.297 618.083L671.073 627.573L670.947 584.972L806.639 562.217C807.925 565.251 807.106 571.284 807.09 574.684L807.039 592.974C807.053 596.586 807.342 600.404 806.866 603.986C806.29 604.742 805.929 605.057 805.062 605.452Z"/>
	<path d="M716.925 190.232C734.029 190.605 749.323 194.202 764.778 201.549C768.739 203.432 772.749 205.262 776.409 207.698C782.432 211.707 787.76 216.587 792.867 221.691C812.724 241.535 823.267 268.26 823.191 296.251C823.165 305.849 822.063 315.179 820.134 324.577C819.66 326.891 819.302 329.98 818.324 332.112C817.813 333.225 816.735 334.222 815.872 335.065L815.331 335.578C813.38 349.82 795.756 369.55 784.473 378.634C779.36 382.751 771.414 385.81 768.42 391.976C766.226 396.496 766.047 402.085 764.66 406.898C763.679 410.301 762.119 413.547 761.352 417.013C760.885 419.126 761.055 421.313 760.623 423.417C759.952 426.682 757.747 430.381 755.371 432.681C746.638 441.132 730.318 438.75 719.125 438.503L700.963 438.509C696.886 438.522 692.316 438.906 688.36 437.836L687.5 437.581C672.922 433.423 670.233 418.225 668.408 405.073C667.656 399.655 667.305 393.846 664.423 389.053C660.538 382.594 651.725 378.605 646.127 373.706C624.704 354.955 613.208 329.197 611.563 301.005C609.908 272.652 619.604 245.8 638.493 224.665C658.667 202.092 687.266 191.75 716.925 190.232Z"/>
	<path fill="#FED855" d="M687.258 397.939C700.364 400.009 713.524 401.87 726.842 400.768C733.288 400.235 739.803 398.828 746.194 397.795L742.689 411.802L740.231 418.505L692.903 417.982C689.184 411.697 688.197 405.053 687.258 397.939Z"/>
	<path fill="#FED855" d="M715.849 210.739C737.68 211.449 758.226 217.879 774.466 233.188C791.403 249.155 801.703 270.074 802.219 293.5C802.715 315.971 795.55 337.837 779.892 354.244C763.837 371.068 742.125 380.398 718.965 380.984C696.147 380.784 677.128 373.561 659.966 358.535C644.237 344.764 633.724 322.109 632.523 301.304C631.798 288.732 633.942 277.959 637.787 266.051C639.219 261.614 640.599 256.967 642.955 252.916C645.648 248.286 650.264 242.942 653.928 238.939C670.605 220.719 691.32 212.021 715.849 210.739Z"/>
	<path d="M714.058 263.663C721.749 262.549 730.636 265.671 736.734 270.298C743.782 275.646 748.513 283.193 749.433 292.091C750.312 300.603 748.49 310.53 742.852 317.25C736.624 324.673 729.09 327.801 719.626 328.745C711.897 329.533 704.978 327.679 698.64 323.317C691.008 318.064 686.199 310.018 684.727 300.952C683.352 292.48 685.461 283.604 690.481 276.666C696.258 268.681 704.65 265.268 714.058 263.663Z"/>
	<path fill="#FED855" d="M715.411 285.707C717.457 285.643 719.793 285.724 721.707 286.491C724.2 287.489 726.275 289.498 727.324 291.976C728.621 295.042 728.843 298.196 727.512 301.297C725.82 305.241 722.617 306.672 718.906 308.195L718.263 308.289C715.203 308.504 711.777 307.229 709.62 305.073C707.014 302.47 705.749 299.191 705.94 295.5C706.082 292.769 706.746 289.616 708.867 287.736L709.346 287.336C711.063 285.891 713.267 285.913 715.411 285.707Z"/>
	<path d="M370.9 246.664C380.23 247.068 385.993 252.478 392.867 258.104C401.398 265.087 410.9 272.462 418.167 280.77C424.064 287.511 428.73 295.629 432.667 303.636C439.39 317.313 444.133 330.847 445.602 346.119C447.168 362.401 445.201 377.758 441.358 393.578C440.735 396.142 440.058 400.682 438.36 402.75L437.75 402.462L437.607 403.043L437.356 404C436.016 409.404 432.152 414.295 429.166 418.956C427.764 421.144 426.493 423.682 424.74 425.607C422.837 427.697 420.402 429.155 418.541 431.341C415.826 434.531 413.896 438.288 411.312 441.572C407.354 446.601 401.711 450.784 396.691 454.733C395.831 454.504 395.157 454.321 394.319 454.75C392.78 455.538 391.176 457.207 389.776 458.276C386.042 461.127 381.917 463.25 377.225 463.969C368.486 465.309 358.099 461.298 350.062 458.133C346.043 456.551 341.938 454.993 338.173 452.854C334.025 450.497 330.33 447.443 326.25 445.011C321.859 442.394 317.369 440.251 313.154 437.304L292.744 421.673C290.098 419.785 287.358 418.058 284.124 417.412C278.051 416.199 271.439 416.94 265.264 416.991L217.92 417.276C211.031 417.298 203.681 418.061 196.866 417.219C193.511 416.804 190.354 415.838 187.5 413.997C182.202 410.577 178.33 404.794 177.024 398.664C175.729 392.581 175.989 386.23 175.986 380.049L175.991 354.712C175.947 342.817 174.812 330.356 176.217 318.531C176.638 314.995 177.29 311.764 179.343 308.762C182.218 304.56 186.595 301.284 191.346 299.503C194.372 298.368 197.679 297.769 200.897 297.553C207.585 297.103 214.524 297.917 221.25 297.972L266.244 298.004C272.29 297.992 279.946 298.804 285.75 296.993C293.379 294.612 300.09 288.32 306.348 283.536C321.177 272.202 336.165 260.59 353.231 252.78C358.957 250.16 364.677 247.784 370.9 246.664Z"/>
	<path fill="#FED855" d="M236.375 317.504L256.739 317.759L256.46 397.692L236.474 397.207L236.375 317.504Z"/>
	<path fill="#FED855" d="M200.109 317.26L216.551 317.014L216.492 381.28L216.483 392.334C216.482 393.083 216.743 395.375 216.48 396C216.347 396.315 216.108 396.572 215.922 396.859L212.537 397.111C208.122 397.415 203.488 397.751 199.12 396.824C197.508 396.482 197.498 396.324 196.641 395C195.918 386.689 195.061 320.939 196.833 318.043C197.266 317.336 199.278 317.37 200.109 317.26Z"/>
	<path fill="#FED855" d="M417.526 371.765L425.987 371.496C421.968 398.927 406.24 418.756 386.128 436.639C384.713 437.883 383.045 438.87 381.479 439.918L381.041 372.019L417.526 371.765Z"/>
	<path fill="#FED855" d="M380.469 273.434C395.276 283.957 407.201 297.538 414.988 314.039C420.604 325.939 423.889 338.636 426.466 351.489L380.999 351.235L380.469 273.434Z"/>
	<path fill="#FED855" d="M360.478 271.428L361.365 272.071L361.55 441.561C343.012 435.64 325.891 420.744 310.391 409.366C303.012 404.14 296.322 399.09 287.208 397.424C283.691 396.78 279.775 396.998 276.201 396.976L275.988 318.055C282.618 317.854 289.002 317.345 295.25 314.932C305.527 310.964 314.102 302.791 322.802 296.216L339.803 284.502C346.506 279.897 353.149 274.996 360.478 271.428Z"/>
	<path d="M408.469 588.238C413.236 588.2 419.748 587.759 424.253 589.218L425 589.482L429.339 591.287C435.22 594.407 438.892 600.176 440.835 606.389C442.426 611.479 442.111 617.201 442.202 622.491L442.3 647.947L442.21 702.192L442.476 764.557C442.539 776.83 443.044 789.307 442.342 801.551C442.083 806.071 441.54 810.177 439.418 814.25C436.306 820.225 430.792 825.369 424.284 827.359L423.5 827.59C419.984 828.68 416.318 828.515 412.669 828.506L397.25 828.323L360.153 828.287L225.012 828.351C221.531 828.38 215.018 828.463 211.995 826.798C210.032 825.717 208.262 824.175 206.101 823.497C204.733 823.068 203.587 822.77 202.438 821.868C195.076 816.091 192.619 806.641 191.99 797.803C191.191 786.581 191.963 775.092 191.975 763.827L191.982 695.363L191.92 648.158C191.766 635.985 190.861 623.549 192.278 611.429C192.965 605.552 194.589 600.12 198.685 595.683C202.686 591.349 208.392 589.478 214.101 588.711C220.243 587.885 227.206 588.46 233.424 588.478L271.117 588.573L408.469 588.238Z"/>
	<path fill="#FED855" d="M275.33 608.746L418.75 608.609C419.798 609.558 420.243 610.096 420.551 611.545L420.689 612.25C422.687 621.956 421.494 633.354 421.347 643.281L359.662 642.989L212.402 643.485L212.083 640L211.94 618.305C211.956 615.97 211.504 611.586 213.182 609.75C220.043 607.98 228.731 609.017 235.876 608.977L275.33 608.746Z"/>
	<path fill="#FEFEFE" d="M212.888 663.014L421.363 663.521L420.841 807.978L282.002 808.485L243.531 808.537C235.922 808.541 227.904 809.053 220.368 807.963C217.502 807.549 216.077 806.3 214.089 804.326C213.798 804.037 212.627 802.996 212.509 802.721C212.287 802.205 212.691 799.23 212.713 798.537L212.853 784.928L212.888 663.014Z"/>
	<path fill="#D9D4D2" d="M357.429 722.766C361.62 723.165 366.24 726.468 368.896 729.61C370.24 731.2 370.049 732.678 369.783 734.655C369.407 737.445 368.485 740.972 365.992 742.694C365.335 743.148 364.306 743.282 363.549 743.444C365.322 741.231 367.534 738.513 367.466 735.5C367.32 729.117 361.615 726.531 357.429 722.766Z"/>
	<path fill="#79673C" d="M276.498 753.353L279.08 757.246C278.898 766.173 277.836 776.429 281.505 784.778C283.885 786.434 286.027 788.226 288.964 788.664C289.757 788.782 290.42 789.055 291.162 789.348L285.219 790.007C283.225 788.929 281.063 787.878 279.442 786.268C277.987 784.823 276.927 783.136 276.377 781.155C275.518 778.058 276.009 774.186 276.078 770.995L276.498 753.353Z"/>
	<path fill="#575348" d="M277.302 688.916C277.807 692.756 278.591 696.548 278.795 700.423C279.375 711.469 278.224 722.497 278.236 733.5C278.244 741.458 280.734 749.154 279.08 757.246L276.498 753.353L276.494 715.448C276.494 706.601 276.083 697.702 277.302 688.916Z"/>
	<path d="M277.302 688.916C278.279 685.216 279.45 682.251 282.855 680.138C284.957 678.834 287.89 678.1 290.321 678.716C297.407 680.512 303.748 686.905 309.75 690.925L324.947 700.467L336.802 708.999L357.429 722.766C361.615 726.531 367.32 729.117 367.466 735.5C367.534 738.513 365.322 741.231 363.549 743.444C356.168 747.243 349.393 752.012 342.494 756.603L314.887 775.087C307.196 780.294 299.911 786.056 291.162 789.348C290.42 789.055 289.757 788.782 288.964 788.664C286.027 788.226 283.885 786.434 281.505 784.778C277.836 776.429 278.898 766.173 279.08 757.246C280.734 749.154 278.244 741.458 278.236 733.5C278.224 722.497 279.375 711.469 278.795 700.423C278.591 696.548 277.807 692.756 277.302 688.916Z"/>
	<path fill="#FED855" d="M297.056 708.219C303.472 711.019 308.496 715.383 314.208 719.298C322.109 724.714 329.846 729.159 336.994 735.656L321.764 745.137L297.571 762.224L297.056 708.219Z"/>
</svg>
