<?xml version="1.0" encoding="utf-8" ?>
<svg xmlns="http://www.w3.org/2000/svg" xmlns:xlink="http://www.w3.org/1999/xlink" width="1024" height="1024">
	<path fill="#FED855" d="M499.261 72.7366C517.936 72.1663 536.248 73.5003 554.824 75.3026C575.088 77.2686 594.957 79.6881 614.844 84.2287C627.794 87.1855 640.447 91.2995 653.023 95.5389C673.066 102.295 692.949 109.965 711.75 119.711L734.57 132.781C742.816 137.56 751.171 142.134 759.055 147.509C765.824 152.123 772.203 157.421 778.643 162.487L802.18 181.649C866.269 238.922 914.258 314.27 936.218 397.616C944.264 428.153 948.589 460.152 950.273 491.658C956.457 607.378 913.462 723.388 835.748 808.882C772.669 878.277 687.711 925.429 595.576 942.803C572.25 947.202 548.924 949.239 525.254 950.445C492.871 951.023 460.882 948.866 429 942.987C351.433 928.684 277.164 892.297 218.255 839.803C195.166 819.228 174.663 796.243 156.316 771.388C147.981 760.097 139.969 748.663 132.839 736.559C97.8783 677.204 77.72 608.377 73.6775 539.705C69.716 472.41 80.5782 405.777 106.372 343.452C111.795 330.348 117.558 317.383 124.326 304.91C141.821 272.665 163.913 242.697 188.273 215.336C202.092 199.816 217.765 186.178 233.8 173.005C256.149 154.647 279.663 139.255 305.061 125.4C320.27 117.103 336.009 109.2 352.174 102.927C399.406 84.5973 448.859 75.6432 499.261 72.7366Z"/>
	<path d="M653.926 238.116C656.16 238.027 658.626 237.774 660.831 238.162C663.64 238.655 665.64 240.021 667.274 242.369C669.288 245.263 670.772 248.944 669.884 252.5C669.117 255.571 666.789 258.724 665.103 261.375L656.513 274.951L646.3 291.961C644.138 295.574 642.063 299.38 639.402 302.651C638.009 304.362 636.258 305.391 634.392 306.498C632.175 306.547 629.537 306.804 627.397 306.172C624.227 305.235 621.274 303.31 619.663 300.374C618.335 297.952 618.016 294.57 618.846 291.922C620.296 287.299 623.737 282.836 626.298 278.729L637.786 259.936C641.25 254.244 644.322 247.702 648.402 242.461C650.002 240.407 651.583 239.234 653.926 238.116Z"/>
	<path d="M361.555 237.634C363.402 237.602 365.407 237.747 367.148 238.392C369.233 239.164 370.911 240.567 372.333 242.25C376.124 246.736 378.788 252.461 382.035 257.383L394.871 276.619C397.719 280.808 401.237 285.17 403.248 289.826C404.527 292.786 404.836 295.965 403.578 298.992C401.885 303.067 398.269 305.013 394.394 306.651C392.006 306.547 389.198 306.39 386.958 305.522C384.956 304.745 383.426 302.79 382.162 301.13C376.946 294.284 372.903 286.636 368.152 279.475L357.371 263.731C355.326 260.772 352.79 257.645 351.394 254.325C350.028 251.075 350.502 248.152 351.919 245C353.853 240.696 357.341 239.133 361.555 237.634Z"/>
	<path d="M750.56 345.105C752.043 344.913 753.845 345.254 755.25 345.736C758.355 346.799 761.387 349.847 762.602 352.866C763.893 356.071 763.592 359.35 762.097 362.439C761.025 364.654 759.129 366.267 757.076 367.546C750.467 371.663 742.703 374.198 735.57 377.285L702.1 391.494C699.685 391.591 697.727 391.295 695.555 390.176C692.561 388.635 690.374 385.825 689.526 382.582C688.752 379.622 689.257 375.794 690.892 373.178C692.053 371.321 693.932 370.098 695.791 369.022C699.129 367.09 702.905 365.666 706.434 364.1L726.965 355.153C734.862 351.719 742.009 346.793 750.56 345.105Z"/>
	<path d="M723.119 482.507L759.608 482.532C766.479 482.576 775.246 481.712 781.77 483.73C785.483 484.879 788.432 487.61 790.16 491.067C791.437 493.623 791.029 496.849 790.047 499.446C788.523 503.477 785.283 505.483 781.58 507.197C776.272 507.788 770.898 507.54 765.564 507.537L740.401 507.516L728.83 507.513C726.64 507.524 724.034 507.786 721.913 507.266C719.562 506.69 717.51 504.336 716.275 502.398C714.236 499.197 713.682 494.74 714.649 491.077C715.784 486.781 719.478 484.484 723.119 482.507Z"/>
	<path d="M286.138 482.732C293.49 482.662 302.263 481.661 307.977 487.156C310.434 489.519 311.582 491.862 311.572 495.282C311.562 498.887 310.306 501.766 307.656 504.25C306.034 505.771 303.884 507.092 301.675 507.485C297.306 508.262 292.083 507.768 287.617 507.773L258.875 507.758C251.864 507.824 242.522 509.105 236.943 504.095C234.745 502.122 233.476 499.416 233.354 496.475C233.215 493.136 233.774 489.98 236.157 487.476C237.907 485.638 240.074 484.265 242.559 483.684C247.155 482.609 252.795 483.156 257.503 483.123L286.138 482.732Z"/>
	<path d="M269.171 341.526C270.879 341.449 272.885 341.246 274.555 341.649C279.008 342.724 283.657 346.431 287.535 348.791L308.687 361.543C314.535 365.011 320.965 367.918 326.487 371.875C328.692 373.454 330.197 375.125 331.535 377.485C333.274 380.553 333.205 384.754 332.233 388.072C331.007 392.255 326.689 394.207 323.145 396.07L321 395.674L316.983 394.728C313.954 393.65 311.228 391.544 308.535 389.825L296.229 382.233C285.796 375.967 274.168 370.365 264.388 363.171C262.869 362.053 261.636 360.938 260.825 359.206C259.362 356.081 259.203 352.723 260.448 349.518C262.137 345.168 265.099 343.272 269.171 341.526Z"/>
	<path d="M509.326 188.634L511.934 188.971C515.462 189.539 518.823 191.709 520.813 194.679C521.814 196.174 522.157 197.969 522.33 199.73C523.035 206.906 522.33 214.777 522.334 222.028L522.429 245.685C522.467 251.658 522.709 257.904 521.67 263.809C518.671 267.617 515.763 269.852 510.938 270.872C508.751 270.696 506.749 270.493 504.75 269.525C501.948 268.167 499.495 265.768 498.572 262.75C497.399 258.918 497.974 253.785 497.959 249.744L497.911 224.297C497.898 216.379 497.261 208.203 497.823 200.327C497.972 198.247 498.24 196.445 499.291 194.604C501.564 190.625 505.229 189.648 509.326 188.634Z"/>
	<path d="M424.766 730.015L598.516 729.999L598.716 767.656C598.753 772.454 598.836 777.271 596.858 781.75C594.318 787.502 588.208 792.094 583.851 796.516L563.735 816.999L549.947 831.36C541.087 840.629 532.034 849.386 518.485 850.54L512.25 850.915C503.63 850.853 496.141 848.72 488.791 844.189C480.847 839.293 474.242 830.778 467.662 824.201L433.721 790.382C430.153 786.81 426.887 783.317 425.275 778.416C423.408 772.741 424.696 764.722 424.732 758.739L424.766 730.015Z"/>
	<path fill="#FEFEFE" d="M491.834 808.75L518.899 808.648C525.769 808.559 532.805 808.075 539.621 809.075L526.502 821.641C522.64 824.696 516.982 827.804 511.916 827.452C500.917 826.686 492.585 816.282 485.596 808.766L491.834 808.75Z"/>
	<path fill="#FEFEFE" d="M448.413 754.507L575.892 754.766C575.923 763.766 575.671 771.439 569.838 778.82C567.177 781.195 564.356 783.556 560.751 784.287C557.694 784.906 554.11 784.521 550.988 784.521L531.492 784.526L465.155 784.486C460.895 784.372 456.323 781.048 453.569 777.962C447.471 771.126 448.026 763.041 448.413 754.507Z"/>
	<path d="M505.031 288.724L519.603 288.556C569.103 290.035 616.245 312.901 649.939 348.858C703.601 406.125 711.586 498.063 672.611 565.255C663.585 580.814 651.931 593.684 639.657 606.677C620.735 626.705 604.989 649.528 600.144 677.25C598.481 686.761 598.317 696.388 597.99 706.01L517.25 706.005L425.091 705.768C425.078 697.976 425.044 689.761 423.862 682.058C419.437 653.21 402.457 629.934 383.917 608.39C375.374 598.464 366.54 588.79 358.819 578.186C339.891 552.19 327.956 518.509 325.512 486.515C321.867 438.804 336.737 391.826 367.995 355.33C396.418 322.145 435.388 299.232 478.44 291.342C487.167 289.743 496.195 289.398 505.031 288.724Z"/>
	<path fill="#FED855" d="M454.718 484.064L456.836 483.994C461.897 483.992 466.645 485.55 470.123 489.392C475.599 495.442 474.066 506.948 473.85 514.502L461.375 514.499C458.148 514.541 454.803 514.595 451.75 513.406C448.128 511.996 445.08 508.866 443.682 505.254C442.026 500.98 441.881 496.537 443.809 492.334C445.902 487.772 450.335 485.782 454.718 484.064Z"/>
	<path fill="#FED855" d="M563.452 483.059C567.615 482.898 572.116 483.104 575.828 485.218C579.221 487.151 581.573 490.652 582.403 494.437C583.312 498.579 582.298 502.831 579.925 506.286C576.234 511.66 570.803 513.719 564.68 514.95L545.942 515.002C545.463 506.583 545.747 499.27 550.328 491.847C553.304 487.027 558.096 484.388 563.452 483.059Z"/>
	<path fill="#FED855" d="M502.007 538.501L521.99 538.509L522.026 681.501L501.83 681.48L502.007 538.501Z"/>
	<path fill="#FED855" d="M506.456 312.707C513.405 312.061 520.37 312.824 527.271 313.583C570.403 318.329 610.938 338.45 638.133 372.748C680.578 426.277 684.92 500.724 647.799 558.234C639.296 571.408 628.632 582.558 618.192 594.159C605.429 608.338 593.966 623.678 586.268 641.264C580.61 654.189 577.48 667.528 575.846 681.503L545.492 681.482L545.53 539.02C554.635 539.214 563.983 539.946 572.977 538.291C584.643 536.144 593.584 530.099 600.249 520.292C606.203 511.532 607.401 501.437 605.41 491.205C603.235 480.028 596.44 471.67 587.055 465.471C578.116 459.567 566.717 458.382 556.407 460.614C538.221 464.553 524.266 481.491 522.128 499.643C521.745 502.894 521.881 506.232 521.916 509.501C521.933 511.117 522.291 513 521.413 514.357L519.125 514.698L497.476 514.483L497.489 507.509C497.464 493.712 496.262 480.944 485.875 470.794C479.023 464.099 468.978 459.62 459.32 459.764C447.418 459.943 437.443 463.329 429.054 471.988C422.169 479.095 418.659 489.042 418.828 498.872C419.012 509.521 422.623 519.477 430.444 526.922C443.634 539.479 461.498 538.434 478.467 538.008L478.448 681.495L447.668 682.008C446.635 675.797 445.628 669.58 443.957 663.5C438.7 644.381 429.257 626.881 417.402 611.075C410.343 601.663 402.228 592.821 394.625 583.838C386.501 574.238 378.359 564.927 371.864 554.083C358.838 532.336 352.475 508.427 349.868 483.413C345.931 445.641 359.366 404.077 383.312 374.794C405.703 347.413 436.808 325.918 471.468 317.75C483.088 315.012 494.609 313.881 506.456 312.707Z"/>
</svg>
