<?xml version="1.0" encoding="utf-8" ?>
<svg xmlns="http://www.w3.org/2000/svg" xmlns:xlink="http://www.w3.org/1999/xlink" width="1024" height="1024">
	<path fill="#FED855" d="M504.098 72.2793L505.092 72.2174C520.028 71.3605 534.779 73.3485 549.623 74.5943C595.813 78.471 640.078 89.9573 683.161 106.831C702.649 114.463 722.049 122.999 740.219 133.436C769.182 150.074 796.007 170.454 820.934 192.632C836.148 206.168 849.016 220.812 861.959 236.456C876.579 254.13 890.166 272.27 902.094 291.897C910.236 305.295 917.268 319.589 923.844 333.798C928.602 344.077 933.725 354.534 937.75 365.109C941.265 374.342 943.903 384 946.665 393.486C955.44 423.621 961.733 454.697 963.52 486.088C964.523 503.688 964.497 521.137 963.783 538.75L963.24 554.058C962.333 565.445 960.508 576.847 958.766 588.133C956.839 600.621 955.015 613.205 952.144 625.52C949.232 638.013 945.293 650.309 941.191 662.457C933.499 685.237 924.158 708.035 912.571 729.14C904.136 744.503 894.179 759.01 883.949 773.221C875.263 785.287 866.472 797.135 856.557 808.233L841.589 823.859C831.74 834.158 821.721 844.523 810.962 853.877L784.935 874.518C775.834 881.48 766.69 888.416 757.063 894.644C745.669 902.016 733.727 908.226 721.657 914.397C681.573 934.892 640.101 950.021 595.739 958.207C571.005 962.77 545.106 964.698 519.988 966.086L518.493 966.17C495.694 967.347 472.39 964.718 449.844 961.531C433.098 959.165 416.288 956.729 399.85 952.689C386.884 949.502 374.654 945.424 362.082 941.064C328.496 929.416 295.694 914.062 265.667 894.941C252.393 886.489 239.869 877.133 227.505 867.417L201.44 845.919C189.797 835.301 179.195 823.443 168.825 811.603C148.322 788.195 129.869 762.4 114.664 735.216C111.899 730.272 109.805 724.99 107.267 719.932L98.8666 703.526L92.6092 687.995C80.5162 658.182 71.6596 627.512 66.2953 595.762C62.9149 575.754 61.2446 555.336 60.2974 535.078C58.129 488.705 64.005 444.168 76.4711 399.5C88.0959 357.846 105.01 318.39 128.064 281.735C133.5 273.092 139.693 264.917 145.68 256.653C154.92 243.898 164.269 231.291 174.899 219.642C189.796 203.318 205.821 189.365 222.931 175.431L240.788 160.857L255.995 150.492C260.114 147.589 264.059 144.338 268.295 141.618C274.486 137.643 281.415 134.432 287.87 130.873C292.003 128.594 295.887 125.888 300.143 123.832L312.001 118.723C315.15 117.244 318.254 114.715 321.5 113.597C323.285 112.982 325.235 113.115 327 112.394C329.418 111.405 331.667 109.951 334.077 108.913L354.69 100.755L374.469 94.3462C389.045 89.612 403.804 85.0989 418.833 81.9992C446.607 76.2712 475.786 73.5438 504.098 72.2793Z"/>
	<path d="M391.216 230.718L418.655 230.99L492.62 231.008L525.892 230.945C533.259 230.855 540.995 230.16 548.307 231.069C551.944 231.522 555.079 232.769 557.984 235.037C563.991 239.729 569.356 246.203 574.769 251.622L612.838 289.941L625.754 302.813C629.791 306.627 634.057 309.999 637.466 314.421L637.712 438.07L637.874 484.094C637.924 491.053 638.44 498.099 638.201 505.045C638.089 508.308 638.057 512.356 636.461 515.25C635.117 517.685 632.823 519.787 630.132 520.562L629.417 520.75C625.982 521.676 622.289 521.098 618.763 521.039L600.582 521.009L519.565 521.023L519.937 559.67L727.013 559.23C732.335 559.173 739.606 558.524 743.58 562.707C744.885 564.08 745.495 565.846 745.768 567.689C746.785 574.572 746.011 582.111 746.014 589.091L746.089 632.995L769.203 632.989C780.108 632.996 794.82 631.326 803.681 638.981C809.484 643.993 813.177 651.026 813.653 658.701C814.209 667.665 813.939 676.826 813.939 685.809L813.914 731.789L813.907 760.717C813.9 766.568 814.38 773.007 813.332 778.771C812.574 782.934 810.321 787.057 807.456 790.159C802.236 795.811 794.949 797.287 787.574 797.543L768.465 797.558L717.187 797.752L695 797.822C688.668 797.909 682.444 798.179 676.156 797.155C671.37 796.375 666.484 794.146 662.971 790.774C659.69 787.624 657.571 783.31 656.513 778.917C654.807 771.824 655.424 764.059 655.38 756.802L655.183 726.023L588.044 725.503L587.991 770.351L587.522 775.5C586.762 782.04 582.944 788.073 577.806 792.108C573.76 795.285 568.522 797.075 563.447 797.73C557.522 798.494 551.12 797.974 545.124 798.058L497 798.089L468.817 798.03C463.912 798.017 458.66 798.363 453.81 797.724L453 797.606C447.656 796.86 442.684 793.905 438.946 790.037C435.744 786.724 432.672 778.894 431.901 774.236C430.896 768.155 431.466 761.466 431.475 755.297L431.52 721.015L362.29 721.74C361.585 732.226 361.921 742.689 362.198 753.185C362.408 761.133 363.164 769.881 361.484 777.703C360.419 782.662 358.404 787.229 354.895 790.939C348.169 798.048 339.107 799.669 329.75 799.917L270.385 799.922L242.505 800.033C237.515 800.03 231.958 800.451 227.074 799.441C222.207 798.434 217.538 795.552 214.026 792.071C210.639 788.715 208.196 784.078 207.288 779.392C206.308 774.335 206.617 769.052 206.629 763.925L206.711 741.531L206.717 665.868C206.669 656.812 207.77 646.725 214.713 640.076C217.772 637.147 222.051 634.819 226.174 633.855C232.571 632.359 239.888 633.182 246.438 633.241L277.585 633.496L277.543 587.929L277.581 574.473C277.601 571.888 277.389 568.665 278.122 566.187C278.416 565.193 279.374 564.319 280.087 563.582C282.746 560.832 285.44 559.843 289.173 559.471C295.699 558.822 302.776 559.483 309.365 559.487L354.726 559.498L501.492 559.495L501.499 521.345L420.936 521.288L401.908 521.334C397.986 521.391 393.87 521.731 389.967 521.336C386.569 520.992 383.761 520.603 381.084 518.367C378.256 516.006 377.336 513.357 376.962 509.768C375.764 498.286 376.636 485.879 376.625 474.32L376.68 402.734L376.745 297.759L376.534 242.25C376.626 239.607 377.538 236.92 379.287 234.908C382.644 231.048 386.47 230.935 391.216 230.718Z"/>
	<path fill="#FEFEFE" d="M523.514 650.336L559.229 650.317C562.194 650.392 565.62 650.372 567.721 652.786C570.246 655.687 569.164 663.619 568.94 667.333C564.78 668.036 559.578 667.474 555.309 667.462L523.457 667.239L523.514 650.336Z"/>
	<path fill="#FED855" d="M749.498 650.014L776.75 650.245C780.677 650.231 786.66 649.204 790.288 650.456C791.091 650.733 792.405 651.947 793.015 652.547C796.616 656.089 795.594 662.825 795.545 667.497L749.523 667.481L749.498 650.014Z"/>
	<path fill="#FED855" d="M295.998 649.978C305.923 651.108 316.322 650.434 326.304 650.275C330.282 650.212 338.669 648.921 342.039 650.771C343.5 651.573 344.207 653.766 344.507 655.268L344.644 656C345.392 659.807 345.1 663.849 345.049 667.719L296.005 667.235L295.998 649.978Z"/>
	<path fill="#FED855" d="M560.737 263.121C567.412 268.974 573.127 275.675 579.458 281.871C587.931 290.163 597.78 298.077 604.956 307.494L561.05 307.683L560.737 263.121Z"/>
	<path fill="#FEFEFE" d="M453.893 650.005L505.549 650.285L505.533 664.067C505.546 669.982 504.944 676.796 509.355 681.469C511.386 683.62 515.034 685.034 517.901 685.452C522.903 686.181 528.575 685.525 533.662 685.519L569.006 685.515L569.379 750.131L569.475 766.152C569.488 768.773 569.831 772.012 569.29 774.576C568.646 777.625 567.138 778.566 564.672 780.242L564.224 780.258L482.46 780.54L459.815 780.656C458.881 780.654 455.587 780.958 454.909 780.64C454.895 780.634 454.064 779.847 453.945 779.734C450.095 776.067 448.938 773.497 448.81 768.108L448.554 691.67L448.502 668.468C448.5 665.022 448.079 660.877 448.673 657.526C449.221 654.44 451.822 652.175 453.893 650.005Z"/>
	<path fill="#FED855" d="M229.084 650.707L278.041 650.51L277.977 666.25C277.971 668.757 277.656 671.901 278.416 674.312C279.223 676.873 281.207 679.505 283.156 681.342C285.011 683.09 287.35 684.043 289.827 684.506C297.562 685.953 305.852 684.852 313.689 684.703L345.448 684.521L345.29 744.436C345.178 754.968 345.468 765.927 344.139 776.38C342.689 778.249 341.262 779.493 339.318 780.835L337.049 781.403C333.693 781.874 329.854 781.498 326.439 781.528L303.191 781.727L231.5 781.999C230.088 781.961 229.067 782.061 227.959 781.154C225.608 779.23 224.813 775.56 224.519 772.67C223.609 763.723 224.038 754.666 224.05 745.681L224.088 700.976L224.04 674.28C224.007 668.474 223.459 662.082 224.597 656.382C225.074 653.993 227.182 652.036 229.084 650.707Z"/>
	<path fill="#FED855" d="M680.088 650.422L731.835 650.512L731.641 663.891C731.576 670.753 731.839 675.683 736.986 680.832C738.758 682.605 740.513 683.81 743 684.335C748.07 685.406 753.994 684.537 759.191 684.524L795.498 684.52L795.677 729.5L796.088 762.917C796.049 767.45 796.472 773.912 794.75 778.061C793.449 778.984 792.155 778.918 790.625 778.997L694.471 779.485L681.582 778.995C680.488 778.922 678.015 779.065 677.057 778.664C676.735 778.529 676.015 777.692 675.778 777.439C674.775 776.369 673.294 774.5 673.089 773.015C672.691 770.136 673.257 766.607 673.272 763.643L673.352 737.544L673.409 688.497L673.523 657.129C675.094 654.126 677.329 652.262 680.088 650.422Z"/>
	<path fill="#FED855" d="M296.257 576.726L501.642 576.794L501.605 633.274L455.302 632.824C447.773 633.178 442.665 636.373 437.707 641.813C435.406 644.719 433.503 648.166 432.673 651.793C430.946 659.34 431.527 667.167 431.491 674.852L431.286 705.274L362.222 704.989L362.44 674.704C362.503 666.926 363.294 658.313 361.336 650.75C360.305 646.77 358.101 642.936 355.17 640.038C352.249 637.151 348.44 635.238 344.482 634.226C337.675 632.484 330.052 633.002 323.065 632.993L295.539 632.992L295.533 589.629L295.541 580.684C295.542 579.863 295.351 578.243 295.544 577.5C295.632 577.161 296.019 576.984 296.257 576.726Z"/>
	<path fill="#FED855" d="M520.705 576.718L728.001 576.755L728.171 632.999L698.912 632.992C693.334 632.997 687.427 632.646 681.9 633.341L681 633.465C673.096 634.5 667.571 638.277 662.017 643.774C659.401 647.167 657.367 651.185 656.488 655.389C655.01 662.465 655.51 669.817 655.512 677.012L655.533 707.718L588.063 707.998L587.873 664.5C587.746 654.526 585.78 645.656 578.254 638.541C575.121 635.578 570.875 633.623 566.656 632.829C561.439 631.848 555.349 632.44 550.009 632.499L519.104 633.005L518.991 592.113L519.47 580.541C519.522 579.835 519.451 578.227 519.72 577.682C519.924 577.27 520.377 577.039 520.705 576.718Z"/>
	<path fill="#FED855" d="M399.079 248.751L542.961 248.763L542.602 305.893C542.537 311.581 543.218 317.845 547.516 322.008C549.53 323.959 552.477 324.989 555.212 325.386C562.061 326.381 569.54 325.554 576.459 325.512L620.413 325.335L620.094 456.271L620.033 488.323C620.024 492.519 620.68 498.124 619.75 502.163L618.606 502.496L394.539 502.992L394.493 303.303L394.49 261.513L394.507 253.376C394.51 252.501 394.284 250.744 394.52 250C394.647 249.6 395.007 249.316 395.25 248.974L399.079 248.751Z"/>
	<path d="M428.069 456.242L533.624 456.411L587.75 456.507C588.928 456.558 589.859 456.792 590.894 457.359C592.978 458.501 594.559 460.229 595.078 462.588C595.616 465.039 595.217 468.221 593.752 470.31C592.03 472.765 588.378 473.348 585.635 473.716C570.887 474.166 425.162 474.629 423.492 473.522C421.44 472.161 418.925 469.841 418.566 467.286C418.203 464.7 418.953 461.601 420.637 459.585C422.773 457.031 424.9 456.644 428.069 456.242Z"/>
	<path d="M435.108 408.249L461.599 408.475L533.909 408.593L566.824 408.527C572.954 408.495 579.382 408.137 585.481 408.661C588.069 408.884 591.245 409.323 593.25 411.129C594.775 412.502 595.375 414.688 595.458 416.673C595.566 419.238 595.128 421.547 593.313 423.459C589.751 427.21 581.646 426.059 576.875 426.082L492.187 426.073L449.785 426.247C442.485 426.276 434.993 426.652 427.719 426.286C425.671 426.182 423.672 426.034 421.95 424.809C419.905 423.354 418.931 420.661 418.65 418.25C418.39 416.017 419.898 413.531 421.37 411.984C425.153 408.005 430.071 408.425 435.108 408.249Z"/>
	<path d="M427.291 362.242L465.793 362.477L533.306 362.506L571.709 362.396C578.037 362.373 583.852 361.85 590.217 362.671C592.259 364.385 594.039 365.835 594.624 368.571C595.208 371.302 594.975 375.226 593.206 377.532C591.379 379.913 588.422 380.018 585.68 380.435L561.267 379.995L492.395 379.985L447.308 380.125C440.259 380.175 432.75 380.796 425.75 380.274C424.789 380.202 424.042 379.792 423.259 379.248C421.028 377.698 418.747 374.021 418.492 371.295C418.297 369.22 419.204 367.633 420.506 366.1C422.571 363.668 424.099 362.581 427.291 362.242Z"/>
</svg>
