<?xml version="1.0" encoding="utf-8" ?>
<svg xmlns="http://www.w3.org/2000/svg" xmlns:xlink="http://www.w3.org/1999/xlink" width="1024" height="1024">
	<path fill="#FED855" d="M462.493 86.2663C471.728 81.3927 481.984 82.5353 492.104 83.0965L520.516 82.8629C535.974 83.4038 551.184 85.1733 566.499 87.25C600.889 91.9136 635.059 99.9954 667.474 112.564L682.479 119.149L699.198 126.509C706.802 130.297 714.145 134.787 721.472 139.086L738.743 149.266C741.681 151.168 744.341 153.459 747.25 155.399L761.25 164.012C766.179 167.293 770.901 171.082 775.503 174.803C804.406 198.172 832.554 225.275 854.997 255C865.88 269.415 875.212 284.576 884.284 300.172C888.877 308.069 893.892 315.819 897.869 324.053C902.064 332.738 905.238 342.116 908.927 351.044C924.501 388.723 935.026 428.183 939.225 468.775C943.524 510.338 942.304 553.929 933.954 594.937C932.077 604.155 929.261 613.181 926.933 622.293C921.695 642.789 915.56 663.419 906.989 682.794C901.788 694.55 895.217 705.545 889.101 716.83C878.964 735.538 868.267 754.231 854.78 770.784L838.316 790.046C832.877 796.425 827.619 802.959 821.75 808.956C785.52 845.975 741.938 876.697 695.395 899.212C688.708 902.447 682.015 906.001 675.152 908.828C666.161 912.533 656.587 915.387 647.312 918.317C616.633 928.012 585.663 934.645 553.614 937.8L518 939.718C508.86 940.082 499.666 940.812 490.515 940.371C471.145 939.437 451.701 935.916 432.689 932.364L410.332 928.326C398.596 925.791 386.51 922.37 375.155 918.472C363.042 914.314 351.588 908.805 339.784 903.891C329.772 899.723 319.554 895.948 309.891 890.986C302.244 887.059 295.123 882.387 287.75 878.01C284.942 876.343 281.824 875.223 279.074 873.453C274.258 870.355 269.906 866.17 265.301 862.725C257.641 856.993 249.46 851.635 242.081 845.58C230.669 836.216 219.142 826.218 208.74 815.755L200.626 806.877L189.56 795.484C169.379 772.567 151.698 746.919 136.76 720.33C133.711 714.903 130.234 709.688 127.477 704.108C123.303 695.659 120.002 686.744 116.332 678.066C109.509 661.932 103.258 646.233 98.659 629.286C91.1889 601.76 87.4111 573.677 84.6971 545.339C82.8141 525.679 83.7266 505.803 84.9385 486.134C86.1454 466.546 87.9516 446.864 91.7798 427.596C94.4995 413.907 98.4337 400.342 102.329 386.954C108.307 366.41 115.548 345.777 124.884 326.508C128.97 318.076 133.973 310.163 138.551 302C144.17 291.981 149.414 281.752 155.654 272.091C164.481 258.424 175.092 245.462 185.457 232.928C207.691 206.044 234.245 183.454 262.696 163.469C266.674 160.675 270.362 157.369 274.401 154.704C280.411 150.739 286.909 147.31 293.127 143.654C303.9 137.32 314.812 130.646 326 125.081C332.272 121.961 338.828 119.591 345.301 116.945L364.536 108.998C379.953 103.292 396.632 99.3905 412.471 94.9686C422.719 92.1075 432.922 90.2149 443.47 88.8528C449.542 88.0688 456.694 88.1195 462.493 86.2663Z"/>
	<path fill="#5D4627" d="M688.603 681.09C692.041 684.756 695.207 688.557 699.602 691.098L696.25 691.186C694.038 691.038 692.278 689.644 690.864 688.052C688.774 685.7 688.384 684.209 688.603 681.09Z"/>
	<path fill="#FFE397" d="M462.493 86.2663C471.728 81.3927 481.984 82.5353 492.104 83.0965C489.959 83.4066 488.155 83.5825 486.259 84.6998C481.867 87.2881 474.897 86.9762 470 87.185C468.153 87.2638 466.049 87.6649 464.25 87.0882C463.631 86.8896 463.064 86.5704 462.493 86.2663Z"/>
	<path d="M669.843 537.239L686.982 537.214C693.657 537.218 704.294 536.014 709.444 540.913C711.06 542.451 711.462 544.451 711.478 546.609C711.498 549.382 710.599 552 708.587 553.966C704.73 557.736 697.771 556.829 692.75 556.893L672.088 557.012C667.053 557.013 659.785 557.967 655.5 554.969C653.152 553.327 651.524 551.24 651.201 548.319C650.916 545.741 651.752 542.943 653.481 541.008C657.264 536.777 664.641 537.427 669.843 537.239Z"/>
	<path d="M661.359 476.693L689.25 476.991C693.438 476.961 697.843 476.408 702 476.82C703.94 477.012 706.15 477.547 707.75 478.713C709.588 480.053 711.322 481.759 711.531 484.127C711.775 486.886 711.497 490.459 709.624 492.652C707.717 494.884 705.562 496.249 702.614 496.451L677.183 496.503C671.452 496.49 661.393 498.183 656.469 495.343C654.515 494.217 652.054 491.799 651.611 489.5C651.002 486.342 651.752 483.313 653.75 480.805C655.871 478.143 658.068 477.156 661.359 476.693Z"/>
	<path d="M668.223 507.244L688.264 507.163C694.104 507.113 703.083 505.754 707.955 509.345C709.627 510.577 711.272 512.626 711.509 514.75C711.867 517.957 711.513 520.698 709.25 523.106C705.054 527.571 700.349 526.824 694.625 527.112L673.285 527.122C669.158 527.138 664.463 527.824 660.417 527.151C658.439 526.823 656.552 525.873 655 524.619C652.928 522.946 651.704 520.672 651.506 518.024C651.302 515.293 651.789 512.952 653.747 510.943C657.79 506.794 662.894 507.408 668.223 507.244Z"/>
	<path d="M688.603 681.09C689.788 677.713 690.892 674.173 694.323 672.432C697.013 671.067 700.705 671.477 703.654 671.444C718.569 671.273 743.815 674.806 750.363 657.25C752.119 652.543 751.484 646.451 751.492 641.467L751.51 620.018L751.74 554.558C751.657 538.256 750.741 521.76 752.046 505.494L770.508 505.771L770.506 634.141C783.759 627.823 792.999 618.783 798.07 604.76C799.83 599.894 800.611 594.774 800.905 589.623C801.339 582.045 800.774 574.321 800.682 566.729L800.571 529.433L800.809 494.341C800.868 486.95 801.221 479.422 800.451 472.063C799.922 467.004 798.2 462.245 796.027 457.667C791.007 447.09 782.139 437.642 771.549 432.519L756.246 425.939L721.714 409.252L707.126 433.868C703.204 440.6 688.076 470.004 681.758 471.36C680.731 471.58 679.937 471.361 679.07 470.737C677.354 469.5 676.11 467.206 675.001 465.439C672.171 460.93 669.779 456.11 667.252 451.426L652.067 423.516C650.256 420.178 648.29 415.058 645.764 412.318C634.772 416.767 622.441 420.149 612.109 425.806C600.644 432.083 590.828 443.739 585.762 455.736C583.491 461.115 582.195 467.458 581.584 473.25C580.281 485.594 580.905 498.441 580.87 510.854L580.608 573.973L596.037 574.251L596.032 530.756C596.014 522.623 595.053 513.777 596.63 505.768C597.056 503.608 598.011 501.824 599.549 500.25C601.339 498.417 603.73 497.704 606.266 497.702C608.754 497.699 611.114 498.748 612.841 500.509C614.152 501.847 615.118 503.721 615.47 505.552C617.201 514.57 616.128 524.353 616.057 533.5L615.993 573.998L695.433 573.984L719.235 573.994C723.423 573.997 727.875 573.702 732.029 574.21C734.027 574.454 734.866 574.718 736.316 576.146C736.555 578.413 736.502 580.071 735.863 582.261C734.746 586.094 733.019 589.779 731.528 593.481L720.925 618.621C719.92 620.998 719.666 623.954 718.115 626.009C717.595 626.697 716.991 627.019 716.25 627.428L676.491 627.018L676.603 712.338L676.806 737.322C676.856 742.441 677.132 747.703 676.623 752.801C676.396 755.063 675.72 757.164 674.008 758.75C672.437 760.204 670.285 760.791 668.2 760.914C654.895 761.701 641.203 761.015 627.842 761.018L548.483 761.028L420.162 761.027L351.822 760.951C349.778 759.56 345.962 757.196 345.527 754.617L344.971 627.042C337.93 627.048 300.894 628.956 296.627 625.364C293.206 622.484 293.733 614.37 293.741 610.25L293.965 595.5C294.005 590.406 292.517 579.03 296.536 575.246C297.923 573.94 299.769 573.734 301.592 573.593C306.536 573.211 311.719 573.557 316.678 573.659L339.699 573.965L436.88 573.739L472.042 573.996C478.106 574.006 484.381 574.276 490.412 573.739C484.053 565.236 477.414 555.98 466.172 554.162C462.115 553.506 457.785 553.737 453.684 553.742L433.963 553.801L370.812 554.065C361.447 554.177 350.73 555.476 341.577 553.472C339.605 553.04 337.888 551.873 336.664 550.285C335.011 548.143 334.469 545.206 334.926 542.562C335.378 539.94 336.659 538.371 338.564 536.603L339.059 536.135C342.022 533.554 351.829 534.567 355.961 534.536L407.992 534.501L407.964 516.393C407.967 512.6 407.766 508.75 408.412 505L408.516 504.372C409.016 501.69 411.068 499.191 413.25 497.65C415.439 496.104 418.132 495.467 420.757 495.977C423.528 496.515 425.515 497.946 427.01 500.318C429.659 504.52 428.909 510.504 428.926 515.307L429 534.477L442.512 534.495L442.537 501.705C442.538 494.512 442.93 487.093 442.306 479.935C440.866 463.425 433.965 447.129 422.12 435.405C411.039 424.437 396.722 419.124 381.947 415.198C376.898 433.308 368.737 451.047 361.805 468.544L352.237 492.145C350.459 496.552 348.953 501.317 346.767 505.514C346.123 506.75 344.731 508.891 343.334 509.357C341.866 509.846 338.274 509.057 337.083 508.068C334.169 505.649 332.751 499.907 331.35 496.4L326.287 484.528L306.018 437.111C302.678 428.925 300.751 419.926 295.747 412.508L269.817 425.415C250.83 434.85 233.63 444.129 226.544 465.5C225.152 469.7 224.081 474.173 223.649 478.584C221.978 495.639 223.022 513.523 223.054 530.668C223.095 553.046 221.725 576.468 224.92 598.625C225.707 604.08 227.467 609.561 230.011 614.452C233.683 621.514 239.187 626.898 245.352 631.804L245.07 546.086L245.069 525.338C245.074 520.682 244.866 515.913 245.562 511.296C245.894 509.097 246.783 507.437 248.449 505.934C249.921 504.607 251.793 503.884 253.785 504.071L255.5 504.389C258.953 505.062 262.104 505.641 264.279 508.697C264.898 509.568 265.365 510.519 265.491 511.588C265.895 515.01 265.551 518.866 265.543 522.342L265.479 543.922L265.344 614.415L265.419 634.581C265.472 639.862 265.132 645.56 266.936 650.602C270.576 660.779 278.242 667.585 288.853 669.802C294.265 670.933 299.935 670.971 305.445 670.997C309.013 671.014 313.578 670.504 316.91 671.954C318.146 672.492 319.322 673.855 320.009 675C321.424 677.36 321.894 680.852 321.069 683.476C320.224 686.163 318.16 688.822 315.615 690.087C312.932 691.421 309.203 691.021 306.287 691.026C296.255 691.045 286.348 691.049 276.853 687.354C264.558 682.569 255.296 674.197 249.721 662.274C248.744 660.185 247.325 655.67 245.793 654.124C244.032 652.346 239.307 650.922 236.977 649.623C224.699 642.778 216.092 633.449 210.504 620.5C206.094 610.282 204.142 598.952 203.042 587.938C201.156 569.052 202.503 549.576 202.57 530.615L202.684 498.126C202.721 490 202.621 481.723 203.586 473.643C204.43 466.57 206.246 459.515 208.928 452.912C221.719 421.417 256.287 407.328 285.626 395.157C292.355 392.365 299.613 389.793 305.832 385.96C291.368 371.199 281.333 355.149 281.476 333.915C281.589 317.071 287.061 301.21 299.177 289.261C309.822 278.764 325.184 272.031 340.25 272.31C356.707 272.616 372.321 278.006 383.865 290.14C391.621 298.292 398.785 309.36 399.524 320.93C399.797 325.198 399.081 329.728 399.844 333.923C400.854 339.469 402.765 344.84 403.8 350.387C404.581 354.576 404.662 358.658 404.543 362.906C404.195 375.241 398.237 386.229 390.528 395.522C397.273 398.9 405.198 399.772 412.208 402.877C433.608 412.357 451.23 433.493 458.546 455.5C464.839 474.43 463.472 494.156 463.096 513.787C462.981 519.816 462.51 526.31 463.332 532.284C475.262 534.304 487.319 538.64 496.081 547.331C498.793 550.02 500.919 553.268 503.646 555.94C507.348 559.567 511.606 562.55 515.25 566.256C517.071 568.107 520.501 572.587 522.776 573.431C525.223 574.34 529.466 574.047 532.111 574.117L560.948 573.993L560.979 515.824C560.984 496.245 558.824 474.247 564.371 455.362C567.879 443.417 575.866 431.51 584.585 422.748C593.957 413.331 604.621 406.672 617 401.998C619.977 400.874 633.276 397.758 634.297 396.51C626.801 388.376 620.878 380.499 619.409 369.25L619.276 368.285C618.548 362.579 619.254 356.886 619.892 351.212L622.499 329.25C623.251 321.665 622.961 313.821 624.869 306.401C626.142 301.45 628.28 296.748 631.467 292.729C637.482 285.144 645.792 280.717 655.391 279.709C665.646 278.632 676.129 278.969 686.43 278.988C693.897 279.002 702.581 278.489 709.902 279.999C717.255 281.514 724.679 284.605 730.482 289.397C737.897 295.52 742.7 302.631 743.613 312.394C744.308 319.813 743.891 327.506 743.737 334.945C743.577 342.72 743.833 350.908 741.828 358.491C739.685 366.595 734.745 373.74 729.414 380.071C727.091 382.829 724.431 385.608 721.637 387.898C728.121 392.508 736.484 395.369 743.752 398.536L765.151 408.001C779.544 414.315 794.099 421.062 804.372 433.444C807.729 437.49 810.209 442.252 812.58 446.921C816.025 453.706 818.838 460.777 820.152 468.303C822.033 479.077 821.465 490.101 821.364 500.99L821.046 539.212L820.993 574.461C820.985 584.121 821.413 594.082 819.547 603.598C817.754 612.738 813.053 621.919 807.653 629.433C799.818 640.335 789.968 647.489 777.771 652.87C776.548 653.41 771.775 654.571 771.179 655.232C770.827 655.623 770.993 656.269 770.897 656.787C770.464 659.096 769.999 661.406 769.261 663.64C764.72 677.377 751.021 687.877 737.002 690.203C724.47 692.282 712.077 690.189 699.602 691.098C695.207 688.557 692.041 684.756 688.603 681.09Z"/>
	<path fill="#FED855" d="M703.816 398.504L704.389 399.25C702.644 405.829 697.388 411.497 693.918 417.299L681.942 438.167L676.421 428.25L665.585 407.992C672.274 408.236 679.053 408.31 685.578 406.582C691.985 404.884 697.955 401.518 703.816 398.504Z"/>
	<path fill="#FED855" d="M337.991 408.502L341.75 408.511C341.829 408.522 342.888 408.748 343.07 408.915C344.117 409.874 344.688 414.846 345.026 416.409C346.069 421.232 347.154 426.316 349.359 430.77C350.393 432.857 351.959 434.584 353.475 436.328L342.205 464.362L341.75 465.106L341.012 465.25L339.825 463.761C338.765 462.297 328.533 436.823 328.613 436.47C328.696 436.103 329.923 434.677 330.148 434.376C331.387 432.725 332.517 431.075 333.401 429.197C336.335 422.968 337.036 415.238 337.991 408.502Z"/>
	<path fill="#FED855" d="M701.201 593.272L711.011 593.039L704.395 607.499L322.851 607.991L313.98 607.998L314.069 593.335L701.201 593.272Z"/>
	<path fill="#FED855" d="M340.02 293.206C346.563 292.638 353.235 294.204 359.002 297.284C366.825 301.463 374.819 308.955 377.356 317.716L377.573 318.5C379.185 323.875 377.717 329.198 378.691 334.549C380.076 342.151 383.277 349.432 384.818 357.039C385.306 359.444 385.645 361.81 385.236 364.255L385.098 365L384.974 365.751C383.872 371.938 378.578 378.101 373.477 381.571C365.648 386.897 357.754 388.593 348.462 386.835C338.184 384.431 329.106 378.421 321.126 371.688C309.853 362.174 302.746 350.054 301.654 335.234C300.908 325.116 304.534 314.28 311.223 306.63C318.781 297.987 328.694 293.937 340.02 293.206Z"/>
	<path fill="#FED855" d="M660.948 299.251L687.673 299.067C692.731 299.039 698.146 298.633 703.153 299.291L704 299.414C712.177 300.53 717.859 305.568 723.397 311.28L723.586 335.415C723.604 341.697 723.744 348.069 722.623 354.274C722.139 356.951 721.36 359.807 719.641 361.972C717.004 365.29 712.917 367.481 709.49 369.87L693.638 380.991C687.478 384.991 681.449 387.904 674.028 388.444C664.98 389.102 654.229 386.474 647.3 380.472C642.619 376.418 638.828 370.714 638.518 364.364C638.135 356.546 640.28 347.878 641.109 340.061C642.133 330.416 641.616 319.973 644.179 310.612C644.781 308.414 646.047 306.411 647.566 304.731C651.452 300.436 655.426 299.413 660.948 299.251Z"/>
	<path fill="#FED855" d="M400.934 627.25L656.592 627.021L656.699 741.279L619.75 741.244L365.449 741.191L365.272 653.143L365.165 634.843C365.141 632.721 364.651 629.289 365.372 627.337L400.934 627.25Z"/>
</svg>
